<svg version="1.1" xmlns="http://www.w3.org/2000/svg" xmlns:xlink="http://www.w3.org/1999/xlink" width="132.90801" height="153.36523" viewBox="0,0,132.90801,153.36523"><g transform="translate(-170.32723,-76.97634)"><g data-paper-data="{&quot;isPaintingLayer&quot;:true}" stroke-miterlimit="10" stroke-dasharray="" stroke-dashoffset="0" style="mix-blend-mode: normal"><g fill-rule="evenodd"><path d="M224.7,201.1c0.8,0.4 2.5,1.3 0.1,4.7c-2.4,3.4 -9.3,4.1 -10.1,4.1c-3.1,0.1 -6.9,0.1 -11.1,-1.3c-12.2,-4 -12.3,-17.1 -8.4,-19.2c3.8,-2.1 5.5,6 11,10.9c2.4,2.2 5.3,3 7.7,3.5c3.4,0.6 9.9,-3.2 10.8,-2.7z" fill="#ffab19" stroke="#001026" stroke-width="1.2" stroke-linecap="round" stroke-linejoin="round"/><path d="M199.9,193c1.6,2.7 4.7,6.5 4.7,6.5c0,0 -3.7,-0.9 -5.8,0.8c-1.7,1.3 -1.3,3.5 -1.1,4.2c-1.3,-1.3 -2.9,-3.1 -3.9,-6.6c-1,-3.5 0,-7.7 2,-8.3c2,-0.4 2.5,1.1 4.1,3.4z" fill="#ffffff" stroke="none" stroke-width="1" stroke-linecap="butt" stroke-linejoin="miter"/></g><path d="M229.7,211.5c-1.8,1.2 -8,5.6 -15.9,8.1l-0.4,0.1c-0.4,0.1 -0.6,0.6 -0.4,1c1.7,2.4 4.8,7.2 -0.7,8.9c-5.3,1.7 -15.2,-12.4 -11,-16.1c1.9,-1.4 3.6,-0.7 4.5,-0.3c0.5,0.2 1,0.2 1.5,0.1c1.2,-0.4 3.4,-1.2 5.1,-2.1c4.3,-2.2 5.3,-3.1 7.3,-4.6c2,-1.5 6.6,-5.2 10.3,-2c3.2,2.7 1.4,5.7 -0.3,6.9z" fill="#ffab19" fill-rule="evenodd" stroke="#001026" stroke-width="1.2" stroke-linecap="round" stroke-linejoin="round"/><path d="M245.6,190.7c0.5,0.4 6.6,7.6 8.6,5.8c2.4,-2.1 5.7,-6.2 9.3,-2.9c3.6,3.3 -3.2,8.9 -6.1,10.4c-6.9,3.1 -12.5,-2.8 -13.7,-4.4c-1.2,-1.6 -3.3,-4.3 -3.3,-6.9c0.1,-2.8 3.5,-3.5 5.2,-2z" fill="#ffab19" fill-rule="evenodd" stroke="#001026" stroke-width="1.2" stroke-linecap="round" stroke-linejoin="round"/><g fill-rule="evenodd"><path d="M245.7,214c2.1,1.9 6.7,5.8 6.7,5.8c0,0 14.3,-2.5 14.3,4.7c0,4.3 -7.2,5.3 -16.9,4.4c-0.6,-0.1 -1.2,-0.3 -1.7,-0.7c-2.2,-1.9 -8.5,-7.5 -12.5,-11.4c-5.9,-5.8 -10.8,-9.6 -10.8,-9.6c-8.5,-8.3 -1.6,-11.8 1.1,-16.6c2.5,-4.1 3.6,-3.3 9.6,-2.1c3.4,0.5 5.4,0.8 7.6,0.7c3.3,-0.1 2.7,4.7 1.8,7.2c0,0 -1.4,3.7 -2.7,5.6c-1.6,2.3 -2.8,3.8 -4,4.7z" fill="#ffab19" stroke="#001026" stroke-width="1.2" stroke-linecap="round" stroke-linejoin="round"/><path d="M237.3,206.6c0,0 -1.5,-1.2 -3.1,-2.7c-2,-1.8 -4,-3.3 -2,-6.4c1.8,-2.4 3.5,-5.6 8,-2.7c4.3,2.7 2.4,5.2 2.4,5.2c-2.2,4.5 -5.3,6.6 -5.3,6.6z" fill="#ffffff" stroke="none" stroke-width="1" stroke-linecap="butt" stroke-linejoin="miter"/></g><path d="M222.2,198.4c2.2,2.8 5.6,6.3 1.3,9.2c-5.9,3.3 -10.8,-6.7 -11.8,-10.2c-0.9,-3.1 1.7,-5.1 3.9,-6.8c4.3,-3.1 7.9,-5.9 11.9,-4.4c5,1.8 1.4,5.8 -1.1,7.6c-1.5,1.1 -3,2.3 -4.1,3c-0.3,0.5 -0.4,1.1 -0.1,1.6z" fill="#ffab19" fill-rule="evenodd" stroke="#001026" stroke-width="1.2" stroke-linecap="round" stroke-linejoin="round"/><g fill-rule="evenodd"><path d="M253.7,131c0.3,-0.2 0.8,-0.1 0.9,0.3l2.6,10.7c0,0 6.4,4.7 8.3,8c3.2,5.5 3.3,10 3.3,10c0,0 7.1,2.1 8.3,7.8c1.2,5.7 -3.2,16.5 -22,20.2c-18.8,3.7 -33.9,-1.4 -41,-12.8c-7.1,-11.4 4.1,-25 3.5,-24.2l-2.1,-17.9c-0.1,-0.4 0.4,-0.7 0.8,-0.5l12.1,7.9c0,0 4.5,-1.7 9.2,-1.9c2.8,-0.2 5.2,0 7.5,0.4z" fill="#ffab19" stroke="#001026" stroke-width="1.2" stroke-linecap="butt" stroke-linejoin="miter"/><path d="M268.5,160.4c0,0 6.9,1.8 8.1,7.5c1.2,5.7 -3.6,16 -22.2,19.6c-24.2,5 -35.7,-9.4 -29,-20c6.7,-10.7 18.2,-1.6 26.6,-2.2c7.2,-0.5 8,-6.8 16.5,-4.9z" fill="#ffffff" stroke="none" stroke-width="1" stroke-linecap="butt" stroke-linejoin="miter"/><path d="M237,171.1c0,-0.4 0.4,-0.7 0.8,-0.6c1.9,0.7 7.3,2.3 13.3,2.7c5.4,0.3 8.6,0 10.1,-0.3c0.5,-0.1 0.9,0.4 0.7,0.9c-0.9,2.7 -4.7,10.2 -15.2,9.6c-9.1,-1 -10,-7.4 -9.7,-12.3z" fill="#ffffff" stroke="#001026" stroke-width="1.2" stroke-linecap="round" stroke-linejoin="round"/><path d="M286.9,161.5c-4.7,3.8 -11.9,3.9 -11.9,3.9" fill="none" stroke="#001026" stroke-width="1.2" stroke-linecap="round" stroke-linejoin="round"/><path d="M285.59999,172.7c-6.3,0.5 -10.2,-1.4 -10.2,-1.4" fill="none" stroke="#001026" stroke-width="1.2" stroke-linecap="round" stroke-linejoin="round"/><path d="M251.6,162.7c2.1,0 4.3,0.2 4.4,0.9c0.1,1.4 -1.4,4.2 -3,4.3c-1.8,0.2 -6,-2.3 -6,-3.9c-0.1,-1.2 2.6,-1.3 4.6,-1.3z" fill="#001026" stroke="#001026" stroke-width="1.2" stroke-linecap="round" stroke-linejoin="round"/><path d="M206.6,161.2c0,0 8.6,2.8 12.1,5.9" fill="none" stroke="#001026" stroke-width="1.2" stroke-linecap="round" stroke-linejoin="round"/><path d="M219,170.6c-4.3,1.7 -11.7,0.6 -11.7,0.6" fill="none" stroke="#001026" stroke-width="1.2" stroke-linecap="round" stroke-linejoin="round"/><g><path d="M263.4,151c2.9,4.5 3,9.6 0.2,11.4c-2.8,1.8 -7.4,-0.3 -10.4,-4.8c-2.9,-4.5 -3,-9.6 -0.2,-11.4c2.8,-1.9 7.5,0.3 10.4,4.8z" fill="#ffffff" stroke="#001026" stroke-width="1.2" stroke-linecap="round" stroke-linejoin="round"/><path d="M263,156.7c0,1.1 -0.8,2 -1.8,2c-1,0 -1.8,-0.9 -1.8,-2c0,-1.1 0.8,-2 1.8,-2c1,0 1.8,0.9 1.8,2" fill="#001026" stroke="none" stroke-width="1" stroke-linecap="butt" stroke-linejoin="miter"/></g><g><path d="M238.6,153.8c3,4.4 2.8,9.8 0.1,11.7c-3.3,1.9 -7.7,0.5 -10.7,-3.9c-3.1,-4.4 -3.3,-10.1 -0.2,-12.3c3.1,-2.3 7.8,0.1 10.8,4.5z" fill="#ffffff" stroke="#001026" stroke-width="1.2" stroke-linecap="round" stroke-linejoin="round"/><path d="M238,159.6c0,1.1 -0.8,2 -1.8,2c-1,0 -1.8,-0.9 -1.8,-2c0,-1.1 0.8,-2 1.8,-2c1,0.1 1.8,0.9 1.8,2" fill="#001026" stroke="none" stroke-width="1" stroke-linecap="butt" stroke-linejoin="miter"/></g></g><path d="M287.81699,216.4625c-2.37171,-0.79057 -1.58114,-3.16228 -1.58114,-3.16228l0.1125,-0.24077c1.42733,-8.55728 3.58438,-17.0094 5.82113,-25.38385c1.79131,-8.96457 5.94179,-17.97854 5.9314,-27.14122c-0.00455,-4.01625 -0.29272,-8.00608 -0.99499,-11.96747c-0.20767,-1.17141 -0.55439,-2.32533 -0.68438,-3.50568c-0.68835,0.73622 -1.93633,1.20168 -2.34658,1.52149c-1.68969,1.31716 -3.02247,2.52193 -4.44301,3.68767l0.30746,0.24597l-1.63982,2.04978c-0.45772,0.5823 -1.16848,0.9563 -1.9666,0.9563c-1.38071,0 -2.5,-1.11929 -2.5,-2.5c0,-0.12613 0.00934,-0.25009 0.02737,-0.3712l0.39169,-2.93764c-0.00505,-8.31899 -3.36324,-16.37944 -5.80272,-24.2186c-0.59296,-1.90545 -2.01874,-5.52007 -2.58204,-8.13599c-1.10798,1.56859 -2.51561,2.95121 -3.5685,4.56328c-1.57205,2.40694 -2.96371,4.80553 -4.45891,7.16547l0.2044,0.06289l-0.81049,2.63408c-0.29656,1.04967 -1.2615,1.81887 -2.40609,1.81887c-1.20482,0 -2.21057,-0.85227 -2.44728,-1.98682l-0.60191,-2.60829c-2.36855,-8.87988 -4.48002,-18.04269 -7.77244,-26.60426c-1.36921,-3.82197 -2.84105,-7.59077 -4.15672,-11.43203c-0.41545,-1.21297 -0.90843,-2.40026 -1.27653,-3.62842c-0.00858,-0.02863 -0.01737,-0.05728 -0.02634,-0.08594c-1.1536,2.34762 -3.56572,5.09374 -4.66705,7.17109c-3.50932,6.61936 -7.02844,13.24048 -10.3005,19.98154c-1.58904,3.27373 -2.24098,8.2215 -4.39771,11.06686c-0.05614,0.07407 -0.11404,0.14641 -0.17356,0.21717l0.02711,0.01897l-1.42741,2.03916c-0.44989,0.66095 -1.20832,1.095 -2.06814,1.095c-1.25484,0 -2.29374,-0.92451 -2.47274,-2.12954l-0.38929,-2.33571c-0.77033,-2.68302 -1.48186,-5.28049 -2.56045,-7.85781c-1.10855,-2.88341 -2.18073,-5.7643 -3.29259,-8.64604c-0.25664,-0.66517 -0.48641,-1.34096 -0.69753,-2.022c0.25466,2.95582 -3.1339,7.03391 -4.22807,9.51988c-4.20992,9.565 -6.66137,19.91344 -10.69726,29.52177l0.28757,0.07568l-1.02029,3.8771c-0.26318,1.09877 -1.25186,1.91552 -2.43131,1.91552c-0.85982,0 -1.61825,-0.43406 -2.06814,-1.095l-1.42741,-2.03916l0.03845,-0.02692l-0.11863,-0.09505c-1.54673,-2.86604 -2.8958,-5.78174 -4.27283,-8.73252c-0.04017,-0.08608 -0.08216,-0.17176 -0.12572,-0.25711c-0.5746,10.03047 -1.13707,20.33027 -0.28711,30.21485c0.32789,3.81326 2.50191,12.22432 -1.6189,14.9588c-1.34902,0.89518 -6.10762,-3.41695 -7.24729,-4.36674c-1.64328,-1.42521 -3.34627,-2.78015 -5.00877,-4.18289c-0.40988,-0.34583 -0.79678,-1.48727 -1.17106,-1.1032c-0.39354,0.40384 0.64872,0.95083 0.78676,1.49755c0.64486,2.55419 0.94542,4.96375 1.74946,7.55492c3.45131,11.12248 7.84713,22.54811 15.45441,31.6031c0,0 1.60046,1.92055 -0.32009,3.52101c-1.92055,1.60046 -3.52101,-0.32009 -3.52101,-0.32009c-8.6711,-10.47823 -13.66422,-23.58549 -17.43583,-36.46791c-0.70513,-2.40848 -2.24824,-9.69788 0.27359,-11.37901c4.27653,-2.85085 9.82855,3.21311 12.4305,5.46656c0.45741,0.38116 0.9894,0.69614 1.47087,1.05595c-0.00206,-0.00923 -0.00414,-0.01845 -0.00625,-0.02764c-0.74943,-3.27423 -0.90788,-6.84322 -1.03256,-10.19359c-0.4208,-11.30817 0.23765,-22.86639 0.83008,-34.16287l0.00913,-0.02281l-0.00757,-0.00054l0.20531,-2.87435c0.08128,-1.30732 1.16732,-2.34247 2.49512,-2.34247c0.88153,0 1.6565,0.45626 2.10163,1.14551l1.63274,2.44912l-0.03048,0.02032c0.04445,0.04803 0.08845,0.09653 0.13196,0.14554c1.4534,1.63699 1.84627,3.96985 2.77201,5.95356c0.78923,1.69121 1.56466,3.37595 2.37801,5.0446c0.31549,-2.11245 1.3223,-4.22355 2.11673,-6.31967c3.07436,-8.11179 5.53037,-16.67476 9.41397,-24.43993c1.13659,-2.27259 1.7904,-4.78276 3.07455,-6.97535c0.75551,-1.28998 1.24989,-3.2602 2.71196,-3.57197c1.82166,-0.38845 3.80336,0.71678 5.26536,1.87087c1.06416,0.84004 1.20255,2.43113 1.75361,3.66986c1.27082,2.8567 2.20367,5.81092 3.32442,8.7236c0.62324,1.50183 1.13759,3.00991 1.60824,4.53482c0.04856,-0.11214 0.09453,-0.22497 0.13716,-0.33866c0.83249,-2.22036 1.54525,-4.49552 2.57564,-6.63125c4.24421,-8.79717 8.53232,-18.08511 14.03995,-26.16791c1.26813,-1.86106 4.37248,-6.97038 6.13134,-7.08254c1.79161,-0.11425 2.54063,2.58656 3.45494,4.13154c1.10572,1.86844 1.16841,4.18461 1.87322,6.23812c1.30446,3.80065 2.75923,7.53149 4.11454,11.31393c2.81093,7.30732 4.78499,15.04569 6.76895,22.68369c2.04552,-3.74494 4.61409,-8.40506 7.68166,-10.91766c1.4255,-1.16761 3.02733,-3.26334 4.79648,-2.74809c2.00469,0.58385 3.27415,8.23455 3.68935,9.66577c2.56743,8.85019 6.44061,17.47675 7.39375,26.65965c1.62374,-1.29239 3.50234,-2.46609 4.50767,-3.05875c1.38738,-0.81789 2.69011,-2.71527 4.24709,-2.30347c1.75127,0.46319 2.54721,2.66476 3.31766,4.30424c1.26102,2.68339 1.25739,7.08795 1.57781,10.08704c0.40261,3.76838 0.7787,7.68595 0.41333,11.48397c-0.78477,8.15769 -4.43507,16.23316 -6.04802,24.29079c-2.20293,8.27359 -4.35093,16.61778 -5.75863,25.07084l-0.30106,0.99992c0,0 -0.79057,2.37171 -3.16228,1.58114z" fill="#fffb66" fill-rule="nonzero" stroke="none" stroke-width="0.5" stroke-linecap="butt" stroke-linejoin="miter"/><path d="M287.33322,214.27587c-2.45967,-0.44721 -2.01246,-2.90689 -2.01246,-2.90689l0.50153,-2.61795c1.83195,-5.42855 1.94481,-11.24413 3.01829,-16.84377c1.4721,-7.67903 4.09782,-15.65432 4.09077,-23.51519c-0.00256,-2.85896 0.00448,-5.93428 -0.39212,-8.77167c-0.02979,-0.21311 -0.07987,-0.42565 -0.13936,-0.63777c-0.1785,0.19627 -0.35701,0.39253 -0.53551,0.5888c-1.55459,1.53982 -5.05585,5.85107 -7.9887,4.69739c-1.53708,-0.60463 -1.39664,-2.99507 -2.0223,-4.52371c-0.81594,-1.99353 -1.53247,-4.02713 -2.23225,-6.06434c-2.48692,-7.24001 -4.32548,-14.70135 -6.06198,-22.14878c-0.32249,-1.38308 -0.9567,-3.27108 -1.38259,-5.1214c-1.00046,1.90522 -2.07357,3.77418 -2.97817,5.73387c-0.67359,1.74851 -2.17159,6.49342 -4.31408,6.68256c-3.44031,0.30371 -5.47737,-6.42942 -6.4796,-8.71453c-1.18901,-2.71097 -2.88036,-4.92309 -4.11726,-7.61025c-2.97604,-6.46546 -4.21986,-13.86778 -5.75441,-20.77117c-0.31814,-1.43121 -0.97722,-3.44737 -1.46371,-5.52094c-2.78057,5.03914 -5.72342,9.98549 -8.55126,15.0071c-2.57801,5.58977 -4.8862,11.37978 -7.61861,16.89052c-1.0333,2.08396 -3.25419,6.5485 -6.60061,5.89909c-1.53979,-0.29881 -1.86116,-2.52942 -2.68709,-3.86286c-2.44328,-3.94461 -3.62179,-8.60169 -5.90075,-12.63233c-0.01764,-0.0312 -0.448,-0.57958 -0.84488,-1.26735c-0.54847,1.34399 -1.37218,2.61127 -1.8608,3.98138c-0.67116,1.88196 -1.36878,3.8313 -2.04184,5.71326c-1.94371,6.79317 -4.39324,13.38613 -6.62641,20.08649c-0.38694,1.16097 -1.60538,6.16881 -2.21943,6.72592c-1.2111,1.0988 -3.01198,1.59477 -4.64709,1.57213c-0.67288,-0.00932 -1.28235,-0.36173 -1.83703,-0.80572c-0.02042,2.31396 -0.88865,5.25163 -0.88611,7.43016c0.00592,5.05614 0.00064,10.11234 -0.00108,15.16848c-0.19847,3.37405 0.93958,9.20149 -3.45594,10.80541c-0.33219,0.12122 -5.58617,-1.55328 -6.54844,-1.92504c-0.34093,-0.13171 -0.82412,-0.32784 -1.29944,-0.55716c0.10259,0.31842 0.18782,0.6231 0.25375,0.85785c0.71357,2.54069 1.53888,5.12392 2.58069,7.55079c2.3836,5.55251 5.08249,9.77697 8.93926,14.48988c0,0 1.58309,1.93489 -0.3518,3.51799c-1.93489,1.58309 -3.51799,-0.3518 -3.51799,-0.3518c-5.96368,-7.29036 -9.92251,-14.75323 -12.4667,-23.86483c-0.46634,-1.67012 -1.72155,-6.13508 -0.39341,-7.40154c2.44962,-2.33585 9.43853,1.24204 11.40961,2.88225c0.12359,0.10284 -0.21823,-0.25926 -0.23965,-0.41861c-0.09857,-0.73332 -0.12648,-1.47696 -0.11458,-2.21678c0.01888,-1.17364 0.13785,-2.34352 0.20678,-3.51529c-0.00249,-6.98291 -0.58497,-14.27123 0.43955,-21.17835c0.18013,-1.21438 0.93094,-6.9329 1.40125,-7.22722c1.49881,-0.93797 3.56613,0.12409 5.2712,0.59202c0.64306,0.17648 1.46495,1.77936 1.64566,1.13748c2.34233,-8.32012 5.31467,-16.53362 7.69668,-24.88296c1.36663,-3.83159 2.36061,-8.78427 4.69833,-12.15005c0.93117,-1.34068 1.64462,-3.67063 3.27665,-3.63923c1.91879,0.03691 3.04209,2.36997 4.33778,3.78571c2.42817,2.65315 3.67328,7.05647 5.15597,10.26846c0.14213,0.30789 1.3698,2.33286 2.00687,4.04394c0.52619,-1.1294 1.20445,-2.20388 1.69564,-3.34964c2.09241,-4.88073 4.46686,-9.61073 6.69161,-14.42756c4.1044,-7.30465 8.46155,-14.44333 12.21055,-21.93905l0.03644,-0.03095l-0.01543,-0.00841l1.21637,-2.23001c0.4167,-0.80067 1.25403,-1.34745 2.21906,-1.34745c1.38071,0 2.5,1.11929 2.5,2.5c0,0.05669 -0.00189,0.11294 -0.0056,0.16869l-0.20549,3.4934l-0.00214,-0.00013c0.00052,0.00329 0.00103,0.00658 0.00155,0.00987c0.2893,1.85159 -0.15036,3.77383 0.17488,5.61945c1.33338,7.56648 3.10493,15.50213 5.67984,22.74275c1.5913,4.47473 4.43894,8.29398 6.34446,12.65577c0.03713,0.085 0.07677,0.18005 0.11756,0.28276c0.0923,-0.24397 0.18166,-0.46957 0.25497,-0.66047c1.28806,-2.79114 2.82543,-5.41373 4.18128,-8.16613c0.48063,-0.97568 0.49206,-2.29645 1.34315,-2.97365c1.43894,-1.14494 3.36422,-2.79066 5.08436,-2.14061c1.25058,0.47261 1.77381,5.92133 2.02051,7.44916c0.99273,6.14794 2.50074,12.32309 4.27041,18.29335c1.3103,4.4205 2.71759,8.77224 4.29723,13.09646c0.19727,0.54002 0.491,1.32465 0.64991,2.05255c0.56236,-0.59498 1.22957,-1.10506 1.80621,-1.68847c0.674,-0.74174 1.34799,-1.48348 2.02199,-2.22522l1.85045,-2.05606c0.45784,-0.51296 1.12407,-0.83592 1.86573,-0.83592c1.25484,0 2.29374,0.92451 2.47274,2.12954l0.40681,2.44084l-0.39637,0.06606c3.65524,12.04239 -0.37146,25.0575 -2.7162,37.20995c-1.12587,5.83524 -1.31364,11.80772 -3.18516,17.48197l-0.3256,1.93124c0,0 -0.44721,2.45967 -2.90689,2.01246z" fill="#ffb766" fill-rule="nonzero" stroke="none" stroke-width="0.5" stroke-linecap="butt" stroke-linejoin="miter"/></g></g></svg>