<svg version="1.1" xmlns="http://www.w3.org/2000/svg" xmlns:xlink="http://www.w3.org/1999/xlink" width="106.93933" height="54.672" viewBox="0,0,106.93933,54.672"><defs><linearGradient x1="186.53139" y1="180.0002" x2="293.46955" y2="180.0002" gradientUnits="userSpaceOnUse" id="color-1"><stop offset="0.012" stop-color="#66b3e3"/><stop offset="1" stop-color="#1c75bc"/></linearGradient></defs><g transform="translate(-186.53034,-152.664)"><g data-paper-data="{&quot;isPaintingLayer&quot;:true}" fill-rule="nonzero" stroke="none" stroke-width="1" stroke-linecap="butt" stroke-linejoin="miter" stroke-miterlimit="10" stroke-dasharray="" stroke-dashoffset="0" style="mix-blend-mode: normal"><path d="M293.46966,198.731c0,4.752 -4.52901,8.605 -10.11212,8.605h-86.71626c-5.58428,0 -10.11094,-3.854 -10.11094,-8.605v-37.463c0,-4.752 4.52666,-8.604 10.11094,-8.604h86.71509c5.58664,0 10.11212,3.852 10.11212,8.604v37.463z" fill="url(#color-1)"/><path d="M289.45654,161.268v37.462c0,2.862 -2.73456,5.19 -6.10017,5.19h-86.71509c-3.36209,0 -6.099,-2.328 -6.099,-5.19v-37.463c0,-2.862 2.73691,-5.19 6.099,-5.19h86.71509c3.36561,0 6.10017,2.329 6.10017,5.191z" fill="#27aae1"/><text transform="translate(200,186) scale(0.5,0.5)" font-size="40" xml:space="preserve" fill="#ffffff" fill-rule="nonzero" stroke="none" stroke-width="1" stroke-linecap="butt" stroke-linejoin="miter" stroke-miterlimit="10" stroke-dasharray="" stroke-dashoffset="0" font-family="Sans Serif" font-weight="normal" text-anchor="start" style="mix-blend-mode: normal"><tspan x="0" dy="0">スタート</tspan></text></g></g></svg>