<svg version="1.1" xmlns="http://www.w3.org/2000/svg" xmlns:xlink="http://www.w3.org/1999/xlink" width="303.58685" height="195.87643" viewBox="0,0,303.58685,195.87643"><g transform="translate(-88.24939,-81.74905)"><g data-paper-data="{&quot;isPaintingLayer&quot;:true}" fill-rule="evenodd" stroke="none" stroke-width="1" stroke-linecap="butt" stroke-linejoin="miter" stroke-miterlimit="10" stroke-dasharray="" stroke-dashoffset="0" style="mix-blend-mode: normal"><g><g><path d="M315.24902,248.26274c0,0 -0.82432,-2.24715 0.22482,-2.09734c0.59951,0.07491 0.44963,0.52433 0.22481,0.97376c-0.29976,0.29962 -0.44963,0.44943 -0.44963,1.12358z" fill="#a1af93"/><path d="M325.36573,249.08669c-0.14988,1.4981 0.74938,2.62168 0.22481,3.89506c-1.04914,2.54677 -1.64865,4.26958 -1.04914,6.0673c0.59951,1.72282 -3.22236,3.59544 -3.74693,2.32205c-0.44963,-1.19848 0,-1.4981 0.67444,-2.54677c0,0 -0.89926,0.82395 -1.72358,0.89886c-1.04914,0.14981 -1.57371,-0.74905 -1.72359,-1.64791c-0.07494,-0.97377 0.74939,-1.87263 0.74939,-1.87263c0,0 -1.27396,0.44943 -1.94841,-0.59924c-0.82432,-1.19848 -0.29975,-1.27338 0.67445,-2.54676c0.74939,-1.04867 1.19901,-2.32206 0.82432,-3.67034c-0.44963,-1.64791 0.07494,-2.84639 -0.52457,-4.26958c-0.29976,-0.82396 -1.27396,2.09734 -1.9484,1.79772c-0.9742,-0.44943 -1.19902,-1.27338 -0.67445,-2.17224c0.9742,-1.64791 1.64865,-2.17224 2.62285,-2.84639c1.49877,-0.89886 2.3231,-5.39316 4.2715,-3.29582c2.09828,2.24715 3.59706,7.79011 3.2973,10.48669z" fill="#69b229"/><path d="M320.64459,259.57338c0.14988,-0.14981 0.44963,-0.29962 0.67444,-0.59924c0.22481,-0.29962 0.37469,-0.67415 0.44963,-1.12358c0,-0.22472 0,-0.44943 0,-0.67415c0,-0.29962 -0.07493,-0.52434 -0.07493,-0.82396c0,-1.12357 0.44963,-2.09733 0.89926,-2.77148c0.22481,-0.37453 0.52458,-0.59924 0.67445,-0.74905c0.14988,-0.14981 0.29975,-0.22472 0.29975,-0.22472c0,0 -0.07494,0.14981 -0.22482,0.29962c-0.14988,0.22472 -0.29976,0.44943 -0.44963,0.82395c-0.29976,0.67415 -0.67444,1.64791 -0.67444,2.62167c0,0.22472 0.07494,0.44943 0.07494,0.74905c0,0.29962 0,0.59924 -0.07494,0.82396c0,0.29962 -0.14988,0.52434 -0.22482,0.74905c-0.07494,0.22472 -0.22482,0.37453 -0.37469,0.52434c-0.37469,0.29962 -0.67445,0.37452 -0.89926,0.44943c-0.22481,0.07491 -0.37469,0.07491 -0.37469,0.07491c0,0 0.14988,-0.07491 0.29976,-0.14981z" fill="#519b3d"/><path d="M319.37064,255.52852c0.44963,-0.37453 0.89927,-1.12357 1.12408,-1.87262c0.14988,-0.74905 0.3747,-1.64791 0.59951,-2.24715c0.07494,-0.29962 0.29975,-0.52434 0.37469,-0.67415c0.14988,-0.14981 0.22482,-0.22472 0.22482,-0.22472c0,0 -0.22481,0.37453 -0.29976,0.97377c0,0.29962 -0.07494,0.67414 -0.14988,1.04867c0,0.22472 0.00001,0.37453 -0.07493,0.59924c-0.07494,0.14981 -0.07494,0.37452 -0.14988,0.59924c-0.14988,0.44943 -0.3747,0.82396 -0.59951,1.19848c-0.22481,0.37453 -0.52456,0.59923 -0.82432,0.82395c-0.52457,0.37452 -0.97421,0.44943 -0.97421,0.44943c0,0 0.37469,-0.22471 0.74939,-0.67414z" fill="#519b3d"/><path d="M317.04754,254.55476c0.44963,-0.59924 1.04914,-1.04867 1.34889,-0.07491c0.44963,1.57301 -2.77272,1.19848 -2.77272,1.19848c0.82432,-0.29962 0.9742,-0.52433 1.42383,-1.12357z" fill="#a1af93"/><path d="M318.62125,258.59962c0.29976,-0.67415 0.82432,-1.19848 1.27396,-0.29962c0.74939,1.4232 -2.47297,1.64791 -2.47297,1.64791c0.82432,-0.44943 0.89926,-0.67414 1.19901,-1.34829z" fill="#a1af93"/><path d="M320.71953,261.59582c0.07494,-0.74905 0.37469,-1.4232 1.12408,-0.74905c1.19901,1.12358 -1.79853,2.39695 -1.79853,2.39695c0.67444,-0.67415 0.59951,-0.97376 0.67445,-1.6479z" fill="#a1af93"/></g><g><path d="M309.47875,202.72053c3.2973,8.01483 0.07493,22.17186 -10.34152,31.6848c-3.52211,3.14601 -2.9226,4.5692 -2.9226,4.5692c0,0 4.19656,-0.52434 11.4656,0.29962c5.62039,0.67415 10.94103,-2.02244 13.414,-1.34829c2.62285,0.67415 4.94594,7.11597 -11.61548,9.73764c-28.92629,4.6441 -34.09705,-3.82015 -28.47666,-12.58403c6.14497,-9.58784 1.19902,-16.10456 1.79853,-26.29163c0.59951,-10.18707 21.05774,-19.6251 26.67813,-6.06731z" fill="#69b229"/><path d="M281.67654,233.50647c0.07494,-0.22472 0.22481,-0.52433 0.37469,-0.82395c0.14988,-0.29962 0.29976,-0.67415 0.44964,-1.04867c0.14988,-0.37453 0.29976,-0.82395 0.44963,-1.27338c0.14988,-0.44943 0.22482,-0.97376 0.37469,-1.4981c0.14988,-0.52434 0.22481,-1.12357 0.29975,-1.64791c0.07494,-0.52434 0.14988,-1.04867 0.14988,-1.64791c0,-0.59924 0.07494,-1.19848 0.07494,-1.72281c-0.07494,-0.59924 0,-1.12357 -0.07494,-1.64791c-0.07494,-0.52434 -0.14988,-0.97376 -0.14988,-1.4981c0,-0.44943 -0.07493,-0.89886 -0.14988,-1.34829c-0.07494,-0.82396 -0.22481,-1.4981 -0.29976,-2.02244c-0.07494,-0.44943 -0.14988,-0.74905 -0.14988,-0.74905c0,0 0.07494,0.29962 0.22482,0.74905c0.07494,0.29962 0.14987,0.59924 0.22481,0.89886c0.14988,0.29962 0.22481,0.67415 0.29976,1.12358c0.14988,0.37453 0.22481,0.89886 0.29976,1.34829c0,0.52434 0.07493,1.04867 0.14988,1.573c0.07494,0.52434 0.07494,1.04866 0.07494,1.64791c0.07494,0.59924 0,1.12357 0,1.72281c0,0.59924 -0.07494,1.12357 -0.14988,1.72281c-0.07494,0.59924 -0.14987,1.12357 -0.29975,1.64791c-0.14988,0.52434 -0.29976,1.04867 -0.44964,1.4981c-0.14988,0.44943 -0.3747,0.89886 -0.52457,1.27338c-0.29976,0.74905 -0.67444,1.34829 -0.9742,1.79772c-0.22481,0.37453 -0.44963,0.59924 -0.44963,0.59924c0,0 0.14987,-0.22472 0.22481,-0.67415z" fill="#519b3d"/><path d="M318.77113,238.07567c-0.37469,0.14981 -0.89927,0.22472 -1.42384,0.37453c-0.29976,0.07491 -0.5995,0.14981 -0.89926,0.22472c-0.29976,0 -0.59951,0.07491 -0.9742,0.14981c-0.67444,0.14981 -1.42383,0.22472 -2.17322,0.29962c-0.74939,0.07491 -1.57371,0.22472 -2.47298,0.22472c-1.72359,0.07491 -3.52211,0.07491 -5.39558,0c-1.87347,-0.07491 -3.67199,-0.14981 -5.39557,-0.14981c-1.72359,-0.07491 -3.37223,-0.07491 -4.72113,-0.07491c-0.67444,0 -1.3489,0 -1.87347,0c-0.52457,0 -1.04914,0.07491 -1.42383,0.07491c-0.82432,0.07491 -1.27396,0.07491 -1.27396,0.07491c0,0 0.44963,-0.07491 1.27396,-0.14981c0.74939,-0.07491 1.9484,-0.14981 3.2973,-0.22472c1.3489,0 2.99755,-0.07491 4.72113,-0.07491c1.72359,0 3.59705,0.07491 5.39557,0.07491c1.87347,0.07491 3.67199,0.14981 5.39558,0.07491c0.89927,-0.07491 1.72359,-0.07491 2.47298,-0.14981c0.74939,-0.07491 1.49877,-0.14981 2.17322,-0.22472c0.67444,-0.07491 1.34889,-0.22472 1.87346,-0.29962c0.52457,-0.07491 1.04914,-0.22471 1.42384,-0.29962c0.74939,-0.22472 1.19901,-0.29962 1.19901,-0.29962c0,0 -0.44963,0.14981 -1.19901,0.37452z" fill="#519b3d"/><path d="M303.33378,248.56236c-1.42383,0.14981 -3.14741,0.29961 -5.02088,0.44942c-1.87347,0.07491 -3.82187,0.22472 -5.84521,0.14981c-1.9484,-0.07491 -3.97174,-0.29961 -5.77027,-0.74904c-1.79852,-0.44943 -3.52212,-1.12357 -4.72113,-2.02244c-0.67444,-0.44943 -1.19902,-0.89886 -1.57371,-1.34829c-0.37469,-0.44943 -0.67445,-0.97376 -0.82432,-1.34829c-0.14988,-0.37453 -0.22481,-0.74905 -0.29976,-0.97376c-0.07494,-0.22472 -0.07494,-0.37453 -0.07494,-0.37453c0,0 0,0.52433 0.44963,1.27338c0.44963,0.74905 1.19902,1.72281 2.47298,2.47187c1.27396,0.82396 2.84767,1.42319 4.64619,1.87262c0.89927,0.22472 1.79853,0.37453 2.77273,0.52434c0.9742,0.14981 1.94841,0.22471 2.92261,0.29961c0.9742,0.14981 1.9484,0.07491 2.9226,0.07491c0.9742,-0.07491 1.9484,-0.07491 2.84767,-0.14981c1.79852,-0.07491 3.52212,-0.22471 5.02089,-0.29961c2.99755,-0.22472 4.94594,-0.37453 4.94594,-0.37453c0,0 -1.94841,0.22472 -4.87101,0.52434z" fill="#519b3d"/><path d="M309.7785,215.60419c0.14988,-0.67415 0.22482,-1.573 0.37469,-2.47187c0.14988,-0.89886 0.22481,-1.87262 0.29975,-2.84639c0.07494,-0.44943 0.07494,-0.97376 0.07494,-1.42319c0.07494,-0.52434 0,-0.97376 0,-1.42319c0,-0.52434 -0.07494,-0.89886 -0.07494,-1.34829c-0.07494,-0.44943 -0.14987,-0.82395 -0.22481,-1.19848c0,-0.37453 -0.14988,-0.67415 -0.22482,-0.97377c-0.07494,-0.14981 -0.07493,-0.22471 -0.14988,-0.37452c-0.07494,-0.07491 -0.07494,-0.22472 -0.14988,-0.29962c-0.22481,-0.37453 -0.29976,-0.59924 -0.29976,-0.59924c0,0 0.14988,0.22472 0.3747,0.59924c0.07494,0.07491 0.14987,0.22472 0.22481,0.29962c0.07494,0.07491 0.07494,0.22471 0.14988,0.37452c0.14988,0.29962 0.29975,0.59924 0.37469,0.97377c0.07494,0.37453 0.22481,0.74905 0.29975,1.19848c0.07494,0.44943 0.14988,0.89886 0.14988,1.34829c0.07494,0.44943 0.07494,0.89886 0.07494,1.42319c0,0.52434 -0.07494,0.97376 -0.07494,1.4981c-0.07494,1.04867 -0.22481,2.02243 -0.37469,2.92129c-0.14988,0.89886 -0.37469,1.72281 -0.52457,2.47186c-0.37469,1.4981 -0.74939,2.39696 -0.74939,2.39696c0,0 0.22482,-0.97376 0.44963,-2.54676z" fill="#519b3d"/></g></g><g><g><path d="M175.26376,265.49088c-0.89927,1.19848 -2.54791,4.34448 -2.62285,5.69277c0,1.34829 1.3489,1.42319 0.9742,3.29582c-0.3747,1.79772 -2.02334,2.02243 -2.99754,1.19848c-0.9742,-0.82396 -0.89926,-1.12357 -0.89926,-1.79772c0,0 -0.67445,0.22472 -1.42383,-0.14981c-0.9742,-0.44943 -1.12408,-1.42319 -0.74938,-2.24715c0.3747,-0.82396 0.14988,-1.27339 0.14988,-1.27339c0,0 -1.27396,0.37453 -2.02334,-0.37453c-1.04914,-0.97377 -0.74938,-2.02243 0.44963,-3.14601c1.12408,-1.12358 1.27396,-2.62167 1.19902,-5.01863c-0.07494,-1.72282 2.9226,-3.22091 5.32064,-6.81635c2.62285,-3.89506 4.87101,-2.17225 6.66953,0.14981c3.29729,4.11977 -0.67445,6.29201 -4.04668,10.48669z" fill="#69b229"/><path d="M170.01806,273.73042c0.14988,-0.14981 0.44964,-0.29962 0.67445,-0.59924c0.14988,-0.14981 0.22481,-0.29962 0.29975,-0.52433c0,-0.14981 0.07494,-0.37453 0.07494,-0.59924c0,-0.22472 0,-0.44943 -0.07494,-0.67415c0,-0.22472 -0.07494,-0.44943 -0.14988,-0.74905c-0.07494,-0.52434 0,-1.04867 0.07494,-1.573c0.07494,-0.44943 0.29976,-0.89886 0.44963,-1.27338c0.14988,-0.37453 0.3747,-0.67415 0.52457,-0.82396c0.14988,-0.14981 0.22481,-0.22472 0.22481,-0.22472c0,0 -0.07493,0.07491 -0.14987,0.29962c-0.14988,0.14981 -0.22482,0.44943 -0.3747,0.82396c-0.14988,0.37453 -0.22481,0.82395 -0.29975,1.27338c0,0.44943 -0.07494,0.97376 0,1.42319c0,0.22472 0.07494,0.44943 0.14988,0.74905c0.07494,0.29962 0.07494,0.52434 0.07494,0.82396c-0.07494,0.52434 -0.29976,0.97376 -0.59951,1.27338c-0.14988,0.14981 -0.29975,0.22472 -0.44963,0.29962c-0.14988,0.07491 -0.29976,0.14981 -0.3747,0.14981c-0.22482,0.07491 -0.37469,0.07491 -0.37469,0.07491c0,0 0.14988,0 0.29975,-0.14981z" fill="#519b3d"/><path d="M167.91978,270.13498c0.22482,-0.07491 0.3747,-0.22472 0.59951,-0.44943c0.44963,-0.37453 0.74939,-1.12357 0.82433,-1.87262c0.07494,-0.82396 0.14988,-1.64791 0.29975,-2.24715c0.07494,-0.29962 0.22482,-0.52434 0.29976,-0.67415c0.07494,-0.14981 0.14988,-0.22472 0.14988,-0.22472c0,0 -0.14988,0.37453 -0.14988,0.97377c-0.07494,0.59924 -0.07494,1.42319 -0.14988,2.24715c-0.07494,0.14981 -0.07494,0.37453 -0.14988,0.59924c-0.07494,0.22472 -0.14987,0.44943 -0.22481,0.59924c-0.22482,0.37453 -0.44963,0.67414 -0.74939,0.82395c-0.52457,0.37453 -0.9742,0.37453 -0.9742,0.37453c0,0 0.14987,-0.07491 0.22481,-0.14981z" fill="#519b3d"/><path d="M165.89644,269.23612c0.3747,-0.59924 0.82432,-1.12358 1.27396,-0.22472c0.67444,1.4981 -2.54791,1.573 -2.54791,1.573c0.82432,-0.37453 0.89926,-0.67414 1.27396,-1.34829z" fill="#a1af93"/><path d="M167.99472,273.13118c0.29976,-0.67415 0.67444,-1.27338 1.27395,-0.44943c0.9742,1.27339 -2.24815,1.94753 -2.24815,1.94753c0.74938,-0.52434 0.74939,-0.82396 0.9742,-1.4981z" fill="#a1af93"/><path d="M170.46769,275.75285c0,-0.74905 0.22482,-1.42319 1.04914,-0.82395c1.27396,0.97377 -1.49877,2.62167 -1.49877,2.62167c0.52457,-0.74905 0.44964,-1.04867 0.44964,-1.79772z" fill="#a1af93"/></g><path d="M246.53034,197.47719c3.74693,13.48289 -7.86855,36.70343 -18.50983,37.52738c-16.18673,1.27338 -26.15356,3.74524 -31.39926,4.26958c-5.09582,0.59924 -6.44472,2.39696 -16.56143,20.59886c-2.54791,4.5692 -11.24078,9.66274 -8.01842,-0.89886c0.59951,-2.09734 5.47051,-18.127 9.29238,-22.6962c7.11917,-8.46426 11.09091,-6.1422 15.1376,-7.79011c5.09582,-2.02244 11.4656,-7.34068 9.44226,-19.62509c-3.82187,-23.22053 31.39926,-44.71826 40.6167,-11.38556z" fill="#69b229"/></g><g><path d="M221.95049,86.09354c47.43612,-8.53916 59.80098,20.89848 59.80098,20.89848c-20.45823,24.11939 -2.9226,71.1597 -2.9226,71.1597c-22.85627,-28.46388 -67.14496,-3.59544 -67.14496,-3.59544c3.22236,-32.58365 -27.05283,-19.7 -27.05283,-19.7c11.01597,-31.31026 -11.61548,-31.6848 -18.73464,-28.83841c0,0 33.7973,-35.87947 56.05406,-39.92433z" fill="#a1c380"/><path d="M280.62739,183.84449c-2.69779,-11.46045 -11.01597,-16.62889 -13.93857,-33.55741c-2.62285,-15.2057 6.89435,-34.68099 6.89435,-34.68099c0,0 -13.26413,2.47186 -27.87715,9.21331c-15.21253,7.04107 -35.7457,54.23118 -35.7457,54.23118c0,0 6.14497,-24.49391 16.56143,-45.16768c10.41646,-20.67377 47.88574,-25.7673 47.88574,-25.7673c0,0 -29.5258,-6.66654 -43.08968,-2.09734c-13.56388,4.5692 -49.08476,52.88289 -49.08476,52.88289c16.93612,-35.35513 35.07125,-51.68441 46.16216,-59.92395c11.09091,-8.23955 47.28624,2.09734 47.28624,2.09734c-2.77273,-7.6403 -31.4742,-13.55779 -48.93489,-12.43422c-17.38575,1.12358 -65.49631,41.72205 -65.49631,41.72205c0,0 40.54177,-45.91673 63.84767,-48.16388c29.60073,-2.84639 59.80098,12.73384 59.80098,12.73384c1.3489,-7.93993 -7.86855,-9.73764 -7.86855,-9.73764c7.5688,-0.89886 13.41401,6.0673 15.13759,14.98099c1.72359,8.91369 -13.86363,26.29164 -16.86118,41.57224c-2.99755,15.28061 20.0086,39.99924 20.0086,39.99924c0.9742,6.29201 -12.88944,9.43802 -14.68796,2.09733z" fill="#69b229"/><path d="M291.49349,177.32776c-1.19901,-1.42319 -2.9226,-3.44562 -4.79606,-5.99239c-1.87347,-2.54677 -3.97175,-5.61787 -5.99509,-9.0635c-1.9484,-3.44563 -3.8968,-7.26578 -5.02088,-11.38555c-0.59951,-2.02244 -0.89927,-4.19468 -0.74939,-6.29202c0.14988,-2.09734 0.67445,-4.04486 1.19902,-5.99239c1.12408,-3.82015 2.62285,-7.26577 3.97174,-10.11217c1.3489,-2.84639 2.69779,-5.16844 3.59705,-6.74144c0.89927,-1.573 1.49877,-2.47186 1.49877,-2.47186c0,0 -2.17322,3.59544 -4.87101,9.36312c-1.27396,2.92129 -2.69779,6.29201 -3.82187,10.11217c-0.52457,1.87262 -1.04914,3.89505 -1.19901,5.91749c-0.07494,2.02244 0.22482,4.11977 0.74939,6.14221c1.12408,4.04486 2.99755,7.86502 4.94594,11.31065c1.9484,3.44563 3.97174,6.51673 5.84521,9.0635c3.67199,5.16844 6.44472,8.38935 6.44472,8.38935c0,0 -0.74939,-0.82396 -1.79853,-2.24715z" fill="#519b3d"/><path d="M275.45663,108.11559c-1.04914,0.14981 -2.54791,0.44943 -4.2715,0.82395c-1.72359,0.29962 -3.74693,0.82396 -5.92015,1.34829c-2.17322,0.59924 -4.49632,1.19848 -6.74447,1.94752c-2.24815,0.74905 -4.49632,1.4981 -6.59459,2.32206c-2.09828,0.82395 -3.97174,1.573 -5.6204,2.32205c-1.64865,0.67414 -2.99754,1.34828 -3.89681,1.79771c-0.9742,0.44943 -1.49877,0.74905 -1.49877,0.74905c0,0 0.52456,-0.29962 1.42383,-0.82396c0.89927,-0.52433 2.17322,-1.27338 3.82187,-2.02243c1.64865,-0.74905 3.52211,-1.64791 5.62039,-2.47186c2.09828,-0.82395 4.34644,-1.64791 6.59459,-2.39696c2.24815,-0.67414 4.57126,-1.34829 6.74448,-1.87262c2.17322,-0.52433 4.19656,-0.97376 5.99508,-1.27338c1.72359,-0.37453 3.22236,-0.52434 4.2715,-0.67415c1.04914,-0.07491 1.64865,-0.14981 1.64865,-0.22471c0,0.07491 -0.59951,0.14981 -1.57371,0.44943z" fill="#519b3d"/><path d="M276.28096,101.29924c-1.04914,-0.29962 -2.54791,-0.67414 -4.42138,-1.12358c-1.87347,-0.52433 -4.04668,-0.97376 -6.36978,-1.42319c-2.3231,-0.44943 -4.871,-0.89885 -7.34398,-1.27338c-1.27396,-0.22472 -2.54792,-0.37452 -3.74693,-0.52433c-1.27396,-0.14981 -2.47297,-0.22472 -3.67199,-0.37453c-1.19902,-0.14981 -2.39803,-0.22472 -3.44717,-0.29962c-1.12408,-0.07491 -2.09829,-0.14981 -3.07249,-0.14981c-0.9742,-0.07491 -1.87347,-0.14981 -2.62285,-0.14981c-0.82432,0 -1.49877,0 -2.02334,0c-1.12408,0 -1.72359,0 -1.72359,0c0,0 0.59951,-0.07491 1.72359,-0.07491c0.59951,0 1.27396,-0.07491 2.02334,-0.07491c0.82432,-0.07491 1.64865,0 2.62285,0c0.9742,0 1.94841,0 3.07249,0.07491c1.12408,0.07491 2.24815,0.0749 3.44717,0.22471c1.19902,0.14981 2.39803,0.22472 3.67199,0.37453c1.19902,0.14981 2.47298,0.22472 3.74693,0.44943c2.54791,0.37453 5.02088,0.89885 7.34398,1.34828c1.19902,0.22472 2.32309,0.52434 3.37223,0.74905c1.04914,0.22472 2.09828,0.52433 2.99755,0.74905c1.87347,0.52433 3.37223,0.97376 4.42138,1.34829c1.04914,0.37453 1.64865,0.59924 1.64865,0.59924c0,0 -0.59951,-0.22472 -1.64865,-0.44943z" fill="#519b3d"/><path d="M282.80061,93.88365c-1.49877,-0.59924 -3.52211,-1.4981 -6.07002,-2.47187c-1.27396,-0.44943 -2.69779,-0.97376 -4.12162,-1.49809c-1.49877,-0.52433 -3.07248,-1.04867 -4.64619,-1.57301c-1.57371,-0.44943 -3.22235,-1.04867 -4.94594,-1.4981c-1.64865,-0.44943 -3.44718,-0.97377 -5.17077,-1.34829c-0.89927,-0.22472 -1.72359,-0.44943 -2.62285,-0.67414c-0.89927,-0.14981 -1.72358,-0.37452 -2.62285,-0.52433c-0.82432,-0.14981 -1.72359,-0.37453 -2.54791,-0.52434c-0.89927,-0.14981 -1.72359,-0.29962 -2.54791,-0.44943c-0.82432,-0.07491 -1.64865,-0.22472 -2.47298,-0.37453c-0.82432,-0.07491 -1.64865,-0.22472 -2.39803,-0.29962c-0.74938,-0.14981 -1.49877,-0.22471 -2.24815,-0.29962c-0.74938,-0.07491 -1.42383,-0.07491 -2.09828,-0.14981c-1.34889,-0.14981 -2.54791,-0.22472 -3.67199,-0.29962c-1.12408,0 -2.02334,-0.07491 -2.84766,-0.07491c-1.57371,-0.07491 -2.47298,-0.07491 -2.47298,-0.07491c0,0 0.89927,0 2.47298,0c0.82432,0 1.72358,0 2.84766,0c1.04914,0.07491 2.3231,0.14981 3.67199,0.22472c0.67444,0.07491 1.34889,0.07491 2.09828,0.14981c0.74938,0.07491 1.49877,0.14981 2.24815,0.22472c0.82432,0.07491 1.57371,0.14981 2.39803,0.22471c0.82432,0.07491 1.64865,0.22472 2.47298,0.37453c0.82432,0.07491 1.72359,0.22472 2.54791,0.37453c0.89927,0.14981 1.72358,0.37452 2.62285,0.52433c0.89927,0.14981 1.72358,0.37452 2.62285,0.52433c0.89927,0.14981 1.72358,0.37452 2.62285,0.59924c1.72359,0.44943 3.44718,0.97376 5.17076,1.42319c1.72359,0.52433 3.37223,1.04867 5.02088,1.57301c1.57371,0.59924 3.14742,1.12358 4.57126,1.64791c1.42383,0.52433 2.77273,1.04867 4.04669,1.573c1.19901,0.44943 2.39803,0.97376 3.37223,1.42319c0.9742,0.44943 1.87347,0.82395 2.54791,1.19848c1.42383,0.67414 2.24815,1.12358 2.24815,1.12358c0,0 -0.82432,-0.44943 -2.09828,-1.04867z" fill="#519b3d"/><path d="M279.65319,181.52244c0,-0.29962 -0.07493,-0.74905 -0.22481,-1.34829c-0.14988,-0.59924 -0.37469,-1.27338 -0.67444,-2.02244c-0.29976,-0.74905 -0.74939,-1.573 -1.19902,-2.47186c-0.52457,-0.89886 -1.04913,-1.87262 -1.64864,-2.84639c-0.59951,-0.97376 -1.27396,-2.02243 -1.94841,-3.0711c-1.42383,-2.09734 -2.69779,-4.5692 -3.74693,-7.04107c-1.12408,-2.54677 -1.94841,-5.09354 -2.62285,-7.5654c-0.67445,-2.47187 -1.12408,-4.79391 -1.34889,-6.81635c-0.29976,-1.94753 -0.29976,-3.67034 -0.22482,-4.86882c0.07494,-0.59924 0.07494,-1.04867 0.14988,-1.34829c0.07494,-0.29962 0.07494,-0.44943 0.07494,-0.44943c0,0 -0.07494,0.14981 -0.07494,0.44943c-0.07494,0.29962 -0.07494,0.74905 -0.07494,1.34829c-0.07494,1.19848 0.07494,2.84638 0.37469,4.86882c0.29976,2.02244 0.82433,4.34449 1.49877,6.74145c0.67445,2.47187 1.57371,5.01863 2.62285,7.49049c1.04914,2.47187 2.32309,4.86882 3.67199,6.96616c0.74939,1.12357 1.3489,2.17224 1.94841,3.14601c0.59951,1.04867 1.12408,2.02243 1.57371,2.92129c0.89927,1.79772 1.42383,3.44563 1.72359,4.5692c0.14988,0.59924 0.22482,1.04867 0.22482,1.34829c0,0.29962 0,0.44943 0,0.44943c0,0 0,-0.22472 -0.07494,-0.44943z" fill="#519b3d"/><path d="M274.63231,114.3327c-0.44963,0.89886 -1.04914,2.02243 -1.57371,3.22091c-0.52457,1.19848 -1.04915,2.39696 -1.42383,3.29582c-0.14988,0.44943 -0.29976,0.82395 -0.44963,1.04867c-0.14988,0.22472 -0.22482,0.37453 -0.22482,0.37453c0,0 0,-0.14981 0.07494,-0.44943c0.07494,-0.22472 0.14988,-0.67414 0.29976,-1.12358c0.29976,-0.97377 0.74939,-2.17224 1.27396,-3.37072c0.52457,-1.19848 1.19901,-2.32206 1.79852,-3.14601c0.29976,-0.37453 0.52458,-0.67414 0.74939,-0.89886c0.14988,-0.22472 0.29975,-0.29962 0.29975,-0.29962c0,0 -0.37469,0.59924 -0.82432,1.34829z" fill="#519b3d"/><path d="M275.45663,100.32548c-0.14988,-0.14981 -0.29976,-0.37452 -0.52457,-0.59924c-0.22481,-0.22472 -0.44963,-0.52433 -0.74938,-0.74905c-0.29976,-0.22472 -0.59951,-0.52434 -0.9742,-0.74905c-0.29976,-0.22472 -0.74939,-0.44942 -1.12408,-0.74904c-0.37469,-0.22472 -0.82432,-0.52433 -1.27395,-0.74905c-0.44963,-0.22472 -0.89927,-0.44943 -1.3489,-0.67414c-0.44963,-0.22472 -0.89927,-0.44943 -1.3489,-0.67415c-0.44963,-0.22472 -0.89926,-0.37452 -1.34889,-0.59924c-0.89927,-0.37453 -1.72358,-0.67414 -2.47297,-0.97377c-1.42383,-0.52433 -2.39804,-0.89886 -2.39804,-0.89886c0,0 0.22482,0.07491 0.67445,0.14981c0.44963,0.14981 1.04914,0.29962 1.79853,0.52433c0.67444,0.29962 1.5737,0.52433 2.47297,0.89886c0.44963,0.14981 0.97421,0.29962 1.42384,0.52434c0.44963,0.22472 0.9742,0.44943 1.42383,0.67414c0.44963,0.22472 0.89927,0.52433 1.3489,0.74905c0.44963,0.29962 0.89926,0.52433 1.27396,0.82395c0.37469,0.29962 0.74939,0.52433 1.12408,0.82395c0.37469,0.22472 0.67444,0.52433 0.9742,0.82395c0.22481,0.29962 0.52457,0.52433 0.67445,0.82395c0.22481,0.22472 0.37469,0.44943 0.44963,0.67414c0.22481,0.37453 0.22482,0.67414 0.22482,0.67414c0,0 -0.07494,-0.29962 -0.29976,-0.74905z" fill="#519b3d"/><path d="M285.12371,92.16084c0.14988,0.44943 0.22481,0.97377 0.22481,1.573c0,0.59924 -0.07494,1.27339 -0.37469,1.87262c-0.07494,0.14981 -0.14988,0.29962 -0.29976,0.44943c-0.07494,0.14981 -0.22481,0.29962 -0.29976,0.37452c-0.14988,0.14981 -0.29975,0.44943 -0.37469,0.67414c-0.14988,0.52433 -0.07494,1.04866 0.07494,1.42319c0.14988,0.37453 0.37469,0.67414 0.59951,0.82395c0.22481,0.14981 0.37469,0.14981 0.37469,0.14981c0,0 -0.22482,0.07491 -0.44963,-0.07491c-0.29976,-0.14981 -0.59951,-0.37452 -0.82432,-0.82395c-0.22481,-0.44943 -0.37469,-1.04866 -0.22481,-1.6479c0.07494,-0.29962 0.14988,-0.59924 0.37469,-0.89886c0.07494,-0.14981 0.22481,-0.22472 0.29976,-0.37453c0.07494,-0.07491 0.14987,-0.14981 0.22481,-0.29962c0.22481,-0.52433 0.3747,-1.12358 0.3747,-1.64791c0,-0.52433 0,-1.04867 -0.07494,-1.4981c-0.07494,-0.89886 -0.22481,-1.4981 -0.22481,-1.4981c0,0 0.29976,0.52433 0.59951,1.42319z" fill="#519b3d"/><path d="M259.41978,166.09202c-0.37469,-0.14981 -0.89927,-0.22472 -1.57371,-0.37453c-0.67444,-0.14981 -1.49877,-0.29962 -2.47297,-0.37453c-0.44963,-0.07491 -0.9742,-0.07491 -1.49877,-0.14981c-0.52457,-0.07491 -1.04914,-0.14981 -1.64865,-0.14981c-0.52457,0 -1.19901,-0.07491 -1.79852,-0.07491c-0.59951,0 -1.27396,0 -1.94841,0c-1.34889,0 -2.69779,0.14981 -4.19656,0.22472c-0.74938,0 -1.49877,0.14981 -2.24815,0.22472c-0.74938,0.07491 -1.49878,0.14981 -2.24816,0.29962c-0.82432,0.07491 -1.57371,0.22472 -2.32309,0.37453l-1.12408,0.22472l-1.12408,0.22472c-1.57371,0.37453 -3.07248,0.67414 -4.57125,1.12357c-0.67444,0.22472 -1.42383,0.37453 -2.17322,0.59924c-0.29976,0.07491 -0.67444,0.22472 -1.04914,0.29962c-0.3747,0.14981 -0.67444,0.22471 -1.04914,0.37452c-1.42383,0.44943 -2.77273,0.89885 -4.04669,1.34829c-1.27396,0.52434 -2.39803,0.97377 -3.52211,1.4232c-0.52457,0.22472 -1.04914,0.37452 -1.57371,0.59924c-0.52457,0.22472 -0.97421,0.37453 -1.42384,0.59924c-0.82432,0.37453 -1.64864,0.67414 -2.24815,0.97376c-1.19902,0.59924 -1.9484,0.89886 -1.9484,0.89886c0,0 0.74939,-0.37453 1.9484,-0.97377c0.67444,-0.29962 1.42383,-0.67414 2.24815,-1.12357c0.3747,-0.22472 0.89926,-0.44943 1.34889,-0.67415c0.52457,-0.22472 1.04914,-0.44943 1.57371,-0.67414c1.12408,-0.44943 2.24816,-0.97376 3.52212,-1.4981c1.19902,-0.44943 2.54791,-0.97376 3.97174,-1.42319c0.3747,-0.14981 0.67444,-0.22472 1.04914,-0.37453c0.29976,-0.07491 0.67444,-0.22472 1.04914,-0.29962c0.74938,-0.22472 1.49877,-0.44943 2.24815,-0.67415c1.49877,-0.44943 3.07249,-0.74905 4.57126,-1.12357l1.12408,-0.22472l1.19902,-0.22472c0.82432,-0.14981 1.57371,-0.22472 2.32309,-0.37453c0.82432,-0.14981 1.57371,-0.22471 2.3231,-0.29962c0.74938,-0.07491 1.49877,-0.14981 2.24816,-0.22472c1.49877,-0.07491 2.9226,-0.22472 4.2715,-0.14981c0.67444,0 1.34889,-0.07491 1.9484,0c0.67444,0.07491 1.27396,0.14981 1.87347,0.14981c1.19902,0.07491 2.24816,0.22471 3.22236,0.37452c0.89926,0.14981 1.72359,0.29962 2.39803,0.44943c0.67444,0.22472 1.19902,0.29962 1.57371,0.44943c0.37469,0.07491 0.52457,0.14981 0.52457,0.14981c0,0 -0.22482,-0.07491 -0.74939,0.07491z" fill="#7d9950"/><path d="M246.60528,124.36996c-0.44963,0.22472 -1.04914,0.44943 -1.79852,0.89886c-1.49877,0.89886 -3.44718,2.47186 -5.54546,4.5692c-0.9742,1.04867 -2.09828,2.24715 -3.14742,3.59544c-1.04914,1.27338 -2.17322,2.77148 -3.22236,4.26958c-1.04914,1.573 -2.09828,3.14601 -3.14742,4.79392c-0.52457,0.82396 -1.04914,1.6479 -1.57371,2.47186c-0.52457,0.82396 -0.9742,1.72281 -1.49877,2.54677c-1.04914,1.64791 -2.02335,3.37072 -2.99755,5.09354c-0.9742,1.72281 -1.87346,3.37072 -2.77272,5.01863c-1.79853,3.29582 -3.44718,6.36692 -4.79607,8.9886c-2.77273,5.31825 -4.57125,8.83879 -4.57125,8.83879c0,0 0.44963,-0.89886 1.19902,-2.47187c0.74938,-1.573 1.79852,-3.82015 3.14742,-6.51673c1.34889,-2.69658 2.92261,-5.76768 4.64619,-9.0635c0.89927,-1.64791 1.79853,-3.29582 2.77273,-5.01863c0.89927,-1.72281 1.87347,-3.44563 2.92261,-5.16844c0.52457,-0.82396 1.04914,-1.72281 1.57371,-2.54677c0.52457,-0.82396 1.04914,-1.6479 1.57371,-2.47186c1.04914,-1.64791 2.17322,-3.29582 3.22236,-4.79391c1.12408,-1.4981 2.17322,-2.9213 3.2973,-4.26959c1.04914,-1.34829 2.17322,-2.54676 3.22236,-3.59543c1.04914,-1.04867 2.09828,-1.94753 3.07248,-2.69658c0.9742,-0.74905 1.87347,-1.27338 2.62285,-1.72281c0.82432,-0.44943 1.42383,-0.67414 1.87346,-0.82395c0.44963,-0.14981 0.67445,-0.14981 0.67445,-0.14981c0,0 -0.29976,-0.00001 -0.74939,0.22471z" fill="#519b3d"/><path d="M186.27973,133.73308c-0.14988,-0.29962 -0.29976,-0.67414 -0.52457,-1.04867c-0.14988,-0.37453 -0.44963,-0.82396 -0.74939,-1.27339c-0.22482,-0.44943 -0.67445,-0.89885 -1.04914,-1.42319c-0.44963,-0.44943 -0.89926,-0.89886 -1.42383,-1.34829c-0.52457,-0.52434 -1.12408,-0.89886 -1.72359,-1.27339c-0.29976,-0.22472 -0.67444,-0.37452 -0.9742,-0.52433c-0.29976,-0.14981 -0.59951,-0.29962 -0.9742,-0.44943l-1.04914,-0.37452c-0.3747,-0.14981 -0.67444,-0.22472 -1.04914,-0.29962c-0.3747,-0.07491 -0.67444,-0.14981 -1.04914,-0.22472l-0.52457,-0.07491c-0.14988,-0.07491 -0.37469,-0.0749 -0.52457,-0.0749c-0.74938,0 -1.3489,-0.14981 -2.02335,-0.14981c-0.59951,0.07491 -1.27396,0.07491 -1.79853,0.07491c-0.29976,0 -0.59951,0 -0.82432,0c-0.29976,0 -0.52457,0.07491 -0.74939,0.07491c-0.44963,0.07491 -0.89926,0.14981 -1.19901,0.14981c-0.67444,0 -1.04914,0.07491 -1.04914,0.07491c0,0 0.29976,-0.0749 0.9742,-0.22471c0.3747,-0.07491 0.74939,-0.14981 1.19902,-0.22472c0.22482,-0.07491 0.52457,-0.07491 0.74938,-0.14981c0.29976,-0.07491 0.52457,-0.07491 0.82433,-0.07491c0.52457,-0.07491 1.12408,-0.07491 1.79852,-0.14981c0.59951,0 1.3489,0 2.02334,0.07491c0.14988,0 0.37469,0 0.52457,0l0.52457,0.07491c0.3747,0.07491 0.74938,0.14981 1.12408,0.22472c0.3747,0.07491 0.74938,0.14981 1.12408,0.29962l1.04914,0.37453c0.3747,0.14981 0.67445,0.37453 1.04915,0.52434c0.29976,0.14981 0.67444,0.29962 0.9742,0.52433c0.67444,0.44943 1.27395,0.82395 1.79852,1.34829c0.52457,0.44943 0.97421,1.04867 1.42384,1.4981c0.3747,0.52434 0.74938,0.97376 1.04914,1.49809c0.3747,0.44943 0.52457,0.89886 0.74938,1.34829c0.22482,0.44943 0.37469,0.82395 0.44963,1.12357c0.22482,0.59924 0.29976,0.97376 0.29976,0.97376c0,0 -0.07494,-0.37452 -0.44963,-0.89886z" fill="#7d9950"/><path d="M210.48489,160.09962c-0.14988,-0.29962 -0.3747,-0.67414 -0.67445,-1.12357c-0.14988,-0.22472 -0.29976,-0.44943 -0.44963,-0.67415c-0.22482,-0.22472 -0.37469,-0.44943 -0.59951,-0.67414c-0.22482,-0.29962 -0.44963,-0.52433 -0.67444,-0.74904c-0.22482,-0.22472 -0.44964,-0.52434 -0.74939,-0.74905c-0.29976,-0.22472 -0.5995,-0.44943 -0.89926,-0.67415c-0.29976,-0.22472 -0.67445,-0.44943 -0.9742,-0.67414c-0.22482,-0.07491 -0.37469,-0.22472 -0.52457,-0.29962l-0.52457,-0.29962c-0.3747,-0.14981 -0.74938,-0.37453 -1.12408,-0.52434c-0.3747,-0.14981 -0.82432,-0.22472 -1.19902,-0.37453l-0.59951,-0.22471c-0.14988,-0.07491 -0.37469,-0.07491 -0.59951,-0.14981c-0.82432,-0.14981 -1.64865,-0.37453 -2.47298,-0.37453c-0.89927,-0.07491 -1.64864,-0.14981 -2.47297,-0.07491c-0.44963,0.07491 -0.82433,0.07491 -1.19902,0.07491c-0.3747,0 -0.74938,0 -1.12408,0.07491c-0.67444,0.07491 -1.42383,0.22472 -2.02334,0.29962c-0.67444,0 -1.19902,0.14981 -1.72359,0.29962c-0.52457,0.14981 -0.9742,0.22472 -1.34889,0.29962c-0.67444,0.14981 -1.12408,0.22472 -1.12408,0.22472c0,0 0.3747,-0.14981 1.12408,-0.37453c0.3747,-0.07491 0.74938,-0.22471 1.27396,-0.37452c0.52457,-0.14981 1.04915,-0.37453 1.72359,-0.44943c0.59951,-0.14981 1.27396,-0.22472 2.02334,-0.37453c0.74938,-0.14981 1.49877,-0.14981 2.3231,-0.22472c0.82432,-0.07491 1.64865,0 2.47297,0.07491c0.82432,0 1.72359,0.22472 2.54791,0.37453c0.14988,0.07491 0.37469,0.07491 0.59951,0.14981l0.59951,0.22472c0.3747,0.14981 0.82432,0.29962 1.19902,0.44943c0.3747,0.22472 0.74938,0.44943 1.12408,0.59924c0.14988,0.14981 0.3747,0.22472 0.52457,0.29962c0.14988,0.14981 0.37469,0.22472 0.52457,0.37453c0.29976,0.22472 0.67445,0.44943 0.9742,0.67414c0.22482,0.22472 0.52457,0.52434 0.82432,0.74905c0.29976,0.22472 0.52457,0.52434 0.74938,0.74905c0.22482,0.22472 0.52457,0.44942 0.67445,0.74904c0.14988,0.29962 0.37469,0.52433 0.52457,0.74905c0.14988,0.29962 0.29976,0.52434 0.44964,0.74905c0.22482,0.44943 0.44963,0.82395 0.59951,1.19848c0.29976,0.67415 0.37469,1.12358 0.37469,1.12358c0,0 -0.14987,-0.37453 -0.14987,-1.12358z" fill="#7d9950"/><path d="M236.86327,104.96958c-0.89927,0.14981 -2.17322,0.44943 -3.67199,0.82396c-0.74938,0.14981 -1.57371,0.37452 -2.39803,0.74905c-0.82432,0.37453 -1.64865,0.82395 -2.47297,1.34829c-1.64865,0.97377 -3.2973,2.32205 -4.87101,3.67034c-1.57371,1.34829 -3.07248,2.84639 -4.49632,4.19468c-1.42383,1.34829 -2.69779,2.62167 -3.82187,3.74525c-2.24815,2.17225 -3.74693,3.67034 -3.74693,3.67034c0,0 1.34889,-1.573 3.52211,-3.89506c1.12408,-1.19848 2.32309,-2.47186 3.74693,-3.89505c1.42383,-1.4232 2.92261,-2.84638 4.49632,-4.26958c1.57371,-1.34829 3.22236,-2.69658 4.94595,-3.67034c0.82432,-0.44943 1.64864,-0.97377 2.54791,-1.27339c0.89927,-0.37453 1.72359,-0.59924 2.47297,-0.74905c1.57371,-0.37453 2.84767,-0.52433 3.74693,-0.67414c0.89927,-0.14981 1.42383,-0.14981 1.42383,-0.14981c0,0 -0.52457,0.0749 -1.42383,0.37452z" fill="#519b3d"/><path d="M162.82396,129.08898c0.9742,-0.82396 2.47297,-2.09734 4.2715,-3.59544c1.79853,-1.4981 3.89681,-3.22091 6.14496,-5.01863c2.32309,-1.79772 4.72113,-3.74525 7.1941,-5.61787c2.47297,-1.87262 4.94595,-3.74524 7.26904,-5.46806c2.32309,-1.72281 4.57125,-3.29582 6.51966,-4.5692c0.9742,-0.67414 1.87347,-1.27338 2.69779,-1.72281c0.82432,-0.52433 1.49877,-0.97376 2.09828,-1.27338c1.19902,-0.67414 1.87347,-1.04867 1.87347,-1.04867c0,0 -0.67445,0.44943 -1.79853,1.12358c-0.59951,0.37453 -1.19902,0.82395 -2.02334,1.34829c-0.82432,0.52433 -1.64866,1.12357 -2.62286,1.79771c-1.94841,1.27339 -4.12162,2.9213 -6.44472,4.64411c-2.32309,1.72281 -4.79606,3.59543 -7.26904,5.46806c-2.47297,1.87262 -4.87101,3.74524 -7.19411,5.54296c-2.24815,1.79772 -4.42137,3.44562 -6.2199,4.86882c-3.59705,2.84639 -6.07002,4.79392 -6.07002,4.79392c0,0 0.59951,-0.52433 1.57371,-1.27338z" fill="#519b3d"/></g><g><g><path d="M320.71953,212.08365c-18.0602,23.52015 -25.92875,27.56502 -48.71007,28.16426c-20.53317,0.52434 -31.4742,-26.44144 -51.78256,-21.79734c-20.30836,4.6441 -36.64496,3.22091 -37.84398,-11.90989c-1.49877,-18.57642 14.46314,-33.63232 32.89803,-40.8981c18.43489,-7.26578 46.83661,-4.6441 59.27641,5.84259c12.36487,10.48669 15.88698,8.08973 27.05282,11.31064c10.79116,3.0711 26.07863,20.07452 19.10934,29.28784z" fill="#7cbf2e"/><path d="M268.48735,227.36426c18.0602,6.0673 40.0172,-13.85742 50.43366,-30.78593c3.52211,5.39316 5.02089,11.16084 1.79853,15.35551c-18.0602,23.59506 -25.92875,27.63992 -48.71007,28.16426c-20.53317,0.52434 -31.54914,-26.74106 -51.78256,-21.79734c-17.53563,4.26958 -23.53071,2.32206 -30.05036,0.29962c26.67813,-20.82358 57.77764,1.94753 78.31081,8.76388z" fill="#b4d189"/><path d="M310.67776,223.91863c-0.37469,0.44943 -0.89926,1.12357 -1.64864,1.87262c-1.49877,1.573 -3.67199,3.74524 -6.59459,5.99239c-1.49877,1.12357 -3.14742,2.24715 -5.02089,3.29582c-1.87347,1.04867 -3.97174,1.94753 -6.14497,2.62167c-2.17322,0.74905 -4.49631,1.27338 -6.89435,1.72281c-2.3231,0.44943 -4.79606,0.67414 -7.26904,0.82395c-2.47298,0.14981 -4.94594,0.14981 -7.34398,-0.07491c-2.39803,-0.22472 -4.79606,-0.74905 -6.96929,-1.4981c-2.17322,-0.74905 -4.19657,-1.79772 -5.99509,-2.92129c-1.79853,-1.12357 -3.37223,-2.24715 -4.871,-3.37072c-2.99755,-2.17225 -5.32064,-4.11977 -7.04422,-5.46806c-1.64865,-1.34829 -2.62285,-2.09734 -2.62285,-2.09734c0,0 0.9742,0.74905 2.69778,2.02244c1.72358,1.27338 4.12162,3.14601 7.11917,5.31825c1.49877,1.04867 3.14742,2.24715 4.94595,3.29582c1.79852,1.12357 3.74692,2.09734 5.92014,2.84639c2.17322,0.82396 4.49631,1.27339 6.89435,1.4981c2.39803,0.22472 4.79606,0.14981 7.26904,0c2.47298,-0.14981 4.87101,-0.44943 7.26904,-0.82396c2.39803,-0.37453 4.72113,-0.97376 6.89435,-1.64791c2.17322,-0.67415 4.19656,-1.4981 6.07002,-2.47186c1.87347,-0.97376 3.52212,-2.02244 5.02089,-3.14601c2.9226,-2.17225 5.17077,-4.34448 6.66953,-5.84258c0.74939,-0.74905 1.34889,-1.34829 1.72359,-1.79772c0.37469,-0.44943 0.59951,-0.67415 0.59951,-0.67415c0,0 -0.22482,0.22472 -0.67445,0.52434z" fill="#7d9950"/></g><path d="M260.99349,164.66882c-2.24815,-0.67415 -5.54545,-1.573 -9.59214,-2.17224c-4.04668,-0.59924 -8.76781,-0.97376 -13.86364,-0.82395c-5.09582,0.14981 -10.4914,0.89885 -15.7371,2.24714c-2.62285,0.67415 -5.2457,1.4981 -7.71867,2.47187c-2.47297,0.97376 -4.87101,2.09734 -7.11917,3.29582c-4.42138,2.39696 -8.31818,5.24334 -11.31572,7.93992c-3.07248,2.77149 -5.32064,5.31825 -6.74447,7.19088c-1.42383,1.87262 -2.09828,3.0711 -2.09828,3.0711c0,0 0.5995,-1.19848 2.02334,-3.14601c1.42383,-1.94753 3.59705,-4.5692 6.59459,-7.34069c2.99755,-2.77149 6.81941,-5.69277 11.31572,-8.16464c2.24815,-1.27338 4.64619,-2.39696 7.11917,-3.37072c2.47297,-1.04867 5.09582,-1.87262 7.71867,-2.54677c5.2457,-1.34829 10.71622,-2.09733 15.81204,-2.24714c5.17076,-0.14981 9.89189,0.29962 13.93858,0.97376c4.04668,0.67415 7.34398,1.64791 9.59214,2.39696c2.24815,0.74905 3.52211,1.34829 3.52211,1.34829c0,0 -1.19902,-0.52433 -3.44717,-1.12357z" fill="#519b3d"/></g><g><g><path d="M211.98366,201.22244c-4.49632,10.03726 -6.14497,14.53155 -27.95209,16.85361c-16.63637,1.72281 -26.07862,21.72243 -65.12162,11.16084c-39.043,-10.5616 -29.67567,-29.96198 -29.67567,-29.96198c-3.37224,11.38555 12.14005,24.11939 35.44595,22.7711c23.45578,-1.34829 62.72359,-44.41863 75.53808,-44.86806c14.16339,-0.52434 16.48648,13.25818 11.76536,24.04449z" fill="#7cbf2e"/><path d="M201.94189,212.53308l5.39558,7.79011c-3.2973,0.89886 -14.7629,-0.59924 -20.15848,0c-16.56142,1.72281 -29.22604,19.55019 -68.26904,8.98859c-4.72113,-1.27338 -8.76781,-2.69657 -12.21499,-4.19467c14.01351,3.14601 33.7973,5.46806 47.88575,-1.79772c23.98035,-12.43422 47.36118,-10.78631 47.36118,-10.78631z" fill="#b4d189"/></g><path d="M97.40258,215.60418c0.59951,0.37453 1.34889,0.74905 2.24815,1.19848c0.89926,0.44943 1.87346,0.89886 2.99755,1.34829c0.52457,0.22472 1.12408,0.44943 1.72359,0.67415c0.59951,0.22472 1.19902,0.44943 1.87346,0.67414c1.34889,0.37453 2.77273,0.82396 4.19656,1.12358c1.49877,0.37453 2.99754,0.59924 4.57125,0.82395c1.49877,0.22472 3.14742,0.37453 4.72113,0.37453c1.57371,0.07491 3.14742,0 4.72113,-0.14981c1.57371,-0.14981 3.14742,-0.37452 4.57125,-0.74905c1.42383,-0.29962 2.84767,-0.74905 4.12162,-1.19848c0.67444,-0.22472 1.27396,-0.44943 1.87347,-0.67414c0.59951,-0.29962 1.19901,-0.52434 1.72358,-0.74905c1.12408,-0.44943 2.09828,-0.89886 2.99755,-1.34829c0.89927,-0.37453 1.64864,-0.82396 2.24815,-1.12358c1.27396,-0.67415 1.94841,-1.04866 1.94841,-1.04866c0,0 -0.67445,0.37452 -1.87347,1.12357c-0.67444,0.29962 -1.34889,0.74905 -2.24816,1.19848c-0.3747,0.22472 -0.89926,0.52433 -1.34889,0.74905c-0.52457,0.22472 -1.04914,0.52434 -1.57371,0.74905c-0.52457,0.22472 -1.12408,0.52434 -1.72359,0.74905c-0.59951,0.22472 -1.19902,0.52433 -1.87346,0.74905c-1.34889,0.44943 -2.69779,0.97377 -4.19656,1.27339c-1.42383,0.37453 -2.99755,0.67414 -4.57126,0.82395c-1.57371,0.22472 -3.14741,0.22472 -4.79606,0.22472c-1.64865,0 -3.22236,-0.14981 -4.79607,-0.37453c-1.57371,-0.14981 -3.07249,-0.44942 -4.57125,-0.82395c-1.49877,-0.29962 -2.92261,-0.74905 -4.19656,-1.19848c-0.67445,-0.22472 -1.27396,-0.44943 -1.87346,-0.67414c-0.59951,-0.29962 -1.19902,-0.52434 -1.72358,-0.74905c-1.04914,-0.52434 -2.09828,-1.04867 -2.92261,-1.4981c-0.82433,-0.44943 -1.57371,-0.89886 -2.17322,-1.27339c-1.19902,-0.74905 -1.79852,-1.27338 -1.79852,-1.27338c0,0 0.67445,0.44942 1.72359,1.04866z" fill="#519b3d"/><path d="M162.5242,229.08707c-0.67444,0.22472 -1.57371,0.52433 -2.54791,0.82395c-0.44963,0.14981 -0.9742,0.29962 -1.57371,0.44943c-0.59951,0.14981 -1.19902,0.29962 -1.79853,0.44943c-0.59951,0.22472 -1.27396,0.29962 -1.9484,0.44943c-0.67444,0.07491 -1.3489,0.29962 -2.09828,0.37453c-1.42383,0.22472 -2.99754,0.52434 -4.57125,0.59924c-0.82432,0.07491 -1.64865,0.22472 -2.47297,0.22472c-0.89927,0 -1.72359,0.07491 -2.54792,0.07491c-0.82432,0 -1.72359,0 -2.54791,0c-0.82432,-0.07491 -1.72359,-0.07491 -2.54791,-0.07491c-1.72358,-0.07491 -3.37224,-0.22472 -5.09582,-0.37453c-1.72358,-0.22472 -3.37223,-0.44943 -4.94594,-0.67415c-1.57371,-0.29962 -3.14742,-0.67414 -4.57126,-0.97376c-0.74939,-0.14981 -1.42383,-0.29962 -2.09828,-0.52434c-0.67445,-0.14981 -1.34889,-0.37453 -1.9484,-0.52434c-1.27396,-0.37453 -2.39804,-0.67414 -3.37224,-1.04866c-0.9742,-0.29962 -1.87347,-0.67414 -2.54792,-0.89886c-1.42383,-0.52434 -2.24815,-0.82396 -2.24815,-0.82396c0,0 0.82432,0.29962 2.24815,0.74905c0.67445,0.22472 1.57372,0.52434 2.54792,0.82396c0.9742,0.37453 2.09828,0.59923 3.37224,0.97376c0.59951,0.14981 1.27396,0.37452 1.9484,0.52433c0.67445,0.22472 1.34889,0.37453 2.09828,0.52434c1.49877,0.29962 2.99755,0.59924 4.57126,0.89886c1.57371,0.22472 3.22235,0.44943 4.871,0.67414c1.72359,0.14981 3.37224,0.29962 5.09582,0.37453c0.82432,0 1.72359,0.07491 2.54791,0.07491c0.82432,0 1.72359,0.07491 2.54792,0c0.82432,0 1.64865,-0.07491 2.47297,-0.07491c0.82432,0 1.57371,-0.07491 2.39803,-0.14981c1.57371,-0.14981 3.14742,-0.29962 4.57126,-0.52434c0.74938,-0.07491 1.42383,-0.29962 2.09828,-0.37452c0.67444,-0.14981 1.34889,-0.22472 1.9484,-0.37453c1.19902,-0.29962 2.39804,-0.52434 3.37224,-0.82396c1.04914,-0.22472 1.87347,-0.52433 2.62285,-0.74905c1.42383,-0.52434 2.24815,-0.82395 2.24815,-0.82395c0,0 -0.82432,0.37452 -2.09828,0.74905z" fill="#7d9950"/></g><g><g><g><path d="M361.2613,159.65019c-6.51965,1.79772 -8.76781,16.7787 -12.73956,26.36654c-3.97174,9.58784 -14.98771,32.88327 -35.29606,37.97681c-25.85381,6.51673 -31.92383,-16.7038 -28.70148,-27.71483c3.22236,-11.01102 0,-18.42661 20.30836,-13.10836c13.414,3.52053 25.85381,5.84258 31.62408,-15.87985c4.34643,-16.17947 19.48404,-29.06312 26.97789,-27.56502c10.71621,2.17225 4.34643,18.127 -2.17322,19.92472z" fill="#7cbf2e"/><path d="M287.74656,216.27833c17.38575,-0.14981 36.79484,-7.41558 43.98894,-14.38174c11.8403,-11.61026 16.78625,-35.13042 21.73219,-36.254c1.12408,-0.22472 1.64865,-0.22471 1.87347,0.74905c-2.54791,5.61787 -4.34644,13.55779 -6.81941,19.55019c-3.97174,9.66274 -9.96683,26.36654 -28.47666,36.17909c-20.60811,11.01102 -19.40909,11.38555 -32.29852,-5.84259z" fill="#b4d189"/></g><path d="M315.0242,185.11787c0.37469,0.07491 0.9742,0.14981 1.79852,0.14981c0.37469,0 0.82432,0 1.27396,0c0.44963,0 0.9742,0 1.49877,-0.07491c1.12408,-0.07491 2.3231,-0.29962 3.59705,-0.74905c1.27396,-0.44943 2.62285,-1.04866 3.89681,-1.94753c1.19901,-0.89886 2.47297,-2.02244 3.52211,-3.29582c1.12408,-1.27338 2.02334,-2.77148 2.84767,-4.34448c0.74939,-1.573 1.42383,-3.29582 1.87347,-5.01863c0.9742,-3.44563 2.24815,-6.89126 3.67199,-9.96236c1.42383,-3.14601 3.07248,-5.84259 4.72113,-8.01483c0.82432,-1.04867 1.72358,-1.94752 2.47297,-2.77148c0.74939,-0.82396 1.42383,-1.4981 2.02335,-2.02244c1.19901,-1.04867 1.87346,-1.64791 1.87346,-1.64791c0,0 -0.67445,0.59924 -1.79853,1.72281c-0.52457,0.59924 -1.19901,1.27338 -1.9484,2.09734c-0.74939,0.82396 -1.57371,1.79772 -2.39803,2.84638c-1.57371,2.17225 -3.14742,4.94373 -4.57126,8.01483c-1.42383,3.0711 -2.62285,6.51674 -3.59705,9.96236c-0.44963,1.79772 -1.12408,3.52053 -1.94841,5.09354c-0.82432,1.64791 -1.79852,3.14601 -2.9226,4.41939c-1.12408,1.34829 -2.39803,2.39696 -3.67199,3.29582c-1.27396,0.89886 -2.69779,1.4981 -3.97174,1.94753c-0.59951,0.22472 -1.27396,0.37453 -1.87347,0.52434c-0.59951,0.07491 -1.19902,0.22471 -1.72359,0.22471c-0.59951,0.07491 -1.12408,0.07491 -1.57371,0.07491c-0.52457,0 -0.9742,0 -1.34889,-0.07491c-0.74939,-0.07491 -1.3489,-0.14981 -1.79853,-0.22471c-0.44963,-0.07491 -0.67444,-0.07491 -0.67444,-0.07491c0,0 0.22482,0 0.74939,-0.14981z" fill="#519b3d"/></g><path d="M314.05,225.56654c1.49877,-0.74905 3.67199,-1.87262 6.2199,-3.37072c2.54791,-1.4981 5.39558,-3.37072 8.1683,-5.76768c2.77272,-2.39696 5.54546,-5.16844 7.94349,-8.23954c2.47298,-3.0711 4.57125,-6.36692 6.36978,-9.58783c1.72359,-3.22091 3.14743,-6.36692 4.34644,-9.0635c1.19901,-2.69658 2.09828,-5.01863 2.69779,-6.59163c0.52457,-1.64791 0.89926,-2.54677 0.89926,-2.54677c0,0 -0.29976,0.89886 -0.82432,2.54677c-0.52457,1.64791 -1.34889,3.96996 -2.47297,6.66654c-1.12408,2.69658 -2.54791,5.91749 -4.2715,9.1384c-1.79852,3.22091 -3.8968,6.59163 -6.36978,9.66274c-2.47298,3.0711 -5.2457,5.91748 -8.09337,8.23954c-2.84767,2.32206 -5.77027,4.19468 -8.31818,5.69278c-2.62285,1.42319 -4.79607,2.47186 -6.36978,3.22091c-1.57371,0.67415 -2.47297,1.12357 -2.47297,1.12357c0,0 0.89927,-0.44943 2.54791,-1.12357z" fill="#7d9950"/></g><g><g><path d="M358.26376,129.68822c0.82432,-1.4981 5.39558,1.19847 8.46805,1.12357c3.07248,-0.07491 6.29484,4.64411 4.49632,6.44183c-6.07002,5.99239 -13.86364,-5.99239 -12.96437,-7.56539z" fill="#69b229"/><g><path d="M369.05491,137.10381c0,0 -4.19656,-6.96616 -11.4656,-8.9886c-4.34643,-1.12358 -6.5946,-6.1422 -6.5946,-6.1422c4.94594,4.11977 7.79362,2.24714 12.96438,3.44562c5.09582,1.19848 10.71621,8.08974 10.71621,8.08974c-3.52211,-0.14981 -5.62039,3.59544 -5.62039,3.59544z" fill="#f1f2dc"/><path d="M368.75516,138.00266c-1.27396,-0.52434 -1.57371,-2.84638 -1.57371,-2.84638c0.82432,-2.9962 5.69533,-3.59544 5.69533,-3.59544c1.64865,0.14981 2.62285,2.47187 2.62285,2.47187" fill="#7cbf2e"/><path d="M374.15074,132.38479c-0.07494,-0.07491 -0.22481,-0.22472 -0.37469,-0.29962c-0.14988,-0.14981 -0.3747,-0.14981 -0.59951,-0.22472c-0.22481,0 -0.44963,0 -0.74939,0c-0.22481,0 -0.52457,0.07491 -0.82432,0.14981c-0.29976,0.07491 -0.59951,0.14981 -0.89927,0.29962c-0.29976,0.14981 -0.5995,0.29962 -0.89926,0.44943c-0.29976,0.07491 -0.52457,0.29962 -0.82432,0.44943c-0.29976,0.14981 -0.52457,0.29962 -0.74939,0.52434c-0.44963,0.37453 -0.82433,0.74905 -0.9742,1.19848c-0.14988,0.44943 -0.14988,0.82396 -0.07494,1.12358c0.07494,0.29962 0.14988,0.44943 0.14988,0.44943c0,0 -0.07494,-0.07491 -0.22481,-0.37453c-0.14988,-0.29962 -0.22482,-0.74905 -0.07494,-1.27339c0.14988,-0.44943 0.52457,-0.97376 0.9742,-1.42319c0.22481,-0.22472 0.44964,-0.37453 0.74939,-0.59924c0.29976,-0.14981 0.59951,-0.37452 0.89926,-0.52433c0.29976,-0.14981 0.59951,-0.29962 0.89926,-0.44943c0.29976,-0.14981 0.59951,-0.22472 0.89926,-0.29962c0.29976,-0.07491 0.59951,-0.14981 0.89927,-0.14981c0.29976,0 0.59951,0 0.82432,0.07491c0.29976,0.07491 0.52457,0.14981 0.67444,0.29962c0.14988,0.14981 0.29976,0.22472 0.3747,0.37453c0.22481,0.29962 0.22481,0.44943 0.22481,0.44943c0,0 -0.07494,-0.14981 -0.29976,-0.22472z" fill="#519b3d"/><path d="M364.03403,131.93536c-0.82432,-0.52434 -1.79852,-1.27338 -2.9226,-1.87262c-0.59951,-0.37453 -1.12408,-0.67414 -1.64865,-0.89886c-0.52457,-0.29962 -1.04914,-0.52434 -1.49877,-0.67415c-0.44963,-0.22472 -0.74938,-0.37453 -1.04914,-0.44943c-0.22481,-0.07491 -0.3747,-0.14981 -0.3747,-0.14981c0,0 0.14988,0 0.44963,0.07491c0.29976,0 0.67445,0.0749 1.12408,0.22471c0.22481,0.07491 0.52457,0.14981 0.74939,0.22472c0.29976,0.07491 0.52457,0.14981 0.82432,0.29962c0.59951,0.22472 1.19902,0.52434 1.72359,0.82396c1.12408,0.67415 2.17322,1.42319 2.84767,2.09733c0.74939,0.59924 1.12408,1.12357 1.12408,1.12357c0,0 -0.44963,-0.37452 -1.34889,-0.82395z" fill="#c9bd9b"/><path d="M359.08808,125.11901c-0.52457,0 -1.12408,0 -1.72359,-0.07491c-0.67444,-0.07491 -1.27396,-0.22472 -1.9484,-0.37453c-0.37469,-0.07491 -0.67444,-0.14981 -0.9742,-0.29962c-0.29976,-0.14981 -0.59951,-0.22472 -0.89927,-0.37453c-0.29976,-0.14981 -0.59951,-0.29962 -0.82432,-0.44943c-0.22481,-0.14981 -0.44964,-0.29962 -0.67445,-0.44943c-0.37469,-0.29962 -0.67445,-0.59924 -0.89926,-0.82395c-0.14988,-0.14981 -0.29976,-0.29962 -0.29976,-0.29962c0,0 0.14988,0.07491 0.37469,0.22472c0.14988,0.07491 0.29976,0.22471 0.44964,0.29962c0.22481,0.07491 0.37469,0.14981 0.5995,0.29962c0.14988,0.14981 0.44964,0.22472 0.67445,0.37453c0.29976,0.14981 0.52457,0.22471 0.82432,0.37452c0.29976,0.07491 0.5995,0.22472 0.89926,0.29962c0.29976,0.14981 0.59951,0.22471 0.89927,0.29962c1.27396,0.29962 2.54791,0.52433 3.52211,0.59924c0.9742,0.14981 1.64865,0.14981 1.64865,0.14981c0,0 -0.67445,0.14981 -1.64865,0.22472z" fill="#c9bd9b"/></g><path d="M365.60774,132.38479c6.07002,-0.67415 9.66708,-0.67414 13.48894,4.71901c3.82187,5.31825 4.2715,10.63649 9.06757,13.48289c4.79607,2.84639 3.74693,8.31445 3.07248,10.18707h-2.02334c0,0 0,1.04867 -1.27396,1.4981c-1.27396,0.44943 -7.5688,-1.72281 -10.8661,-1.94753c-3.2973,-0.22472 -16.56142,1.87263 -20.90786,-7.6403c-4.34643,-9.51293 0.67444,-19.32548 9.44226,-20.29924z" fill="#7cbf2e"/><path d="M386.06597,155.60533c0.9742,0.07491 1.19902,1.4981 0.74939,1.4981c-0.9742,-0.07491 -1.72359,-1.64791 -0.74939,-1.4981z" fill="#46893d"/><path d="M386.8903,156.80381c0,-0.22472 -0.07494,-0.37453 -0.14988,-0.52434c-0.07494,-0.14981 -0.22481,-0.29962 -0.37469,-0.44943c-0.07494,-0.07491 -0.07494,-0.07491 -0.14988,-0.14981c-0.07494,-0.07491 -0.07493,-0.07491 -0.07493,-0.07491c0,0 -0.00001,0 0.07493,0c0,0 0.14987,0 0.22481,0c0.22481,0.07491 0.52458,0.14981 0.67445,0.44943c0.07494,0.14981 0.07494,0.29962 0.07494,0.44943c-0.07494,0.14981 -0.07494,0.29961 -0.14988,0.37452c-0.07494,0.14981 -0.22481,0.22472 -0.22481,0.22472c0,0 0,-0.1498 0.07494,-0.29961z" fill="#34662d"/><path d="M370.02498,149.98989c-0.27928,-0.77889 -0.18984,-1.52346 0.19978,-1.66304c0.38962,-0.13958 0.93188,0.37869 1.21116,1.15758c0.27928,0.77889 0.18983,1.52346 -0.19979,1.66304c-0.38962,0.13958 -0.93187,-0.37869 -1.21115,-1.15758z" fill="#283f1f"/><path d="M374.90012,158.3019c-0.14988,-0.37453 -0.14988,-0.97376 -0.07494,-1.49809c0,-0.37453 0.52457,-0.52434 0.74939,-0.22472c0.52457,0.74905 0.82432,1.42319 0.82432,1.42319z" fill="#f1f2dc"/><path d="M386.5156,160.69886c-0.74939,-0.14981 -1.72359,-0.29962 -2.69779,-0.59924c-0.52457,-0.14981 -0.9742,-0.37452 -1.49877,-0.59924c-0.29976,-0.14981 -0.52457,-0.29962 -0.74938,-0.44943l-0.67444,-0.52434c-0.22481,-0.22472 -0.3747,-0.29962 -0.59951,-0.37453c-0.22481,-0.07491 -0.52457,-0.14981 -0.74939,-0.14981c-0.52457,-0.07491 -0.9742,-0.07491 -1.49877,0c-0.9742,0.14981 -1.87346,0.29962 -2.69779,0.44943c-0.44963,0.07491 -0.82432,0.14981 -1.12408,0.14981c-0.29976,0.07491 -0.59951,0.07491 -0.82433,0c-0.22481,-0.07491 -0.37469,-0.07491 -0.52457,-0.14981c-0.07494,-0.07491 -0.14988,-0.07491 -0.14988,-0.07491c0,0 0.07494,0.07491 0.22482,0.07491c0.07494,0.07491 0.29976,0.07491 0.52457,0.07491c0.22481,0 0.52457,0 0.82432,-0.07491c0.29976,-0.07491 0.67445,-0.14981 1.04914,-0.22472c0.74939,-0.14981 1.64864,-0.44943 2.69779,-0.59924c0.44963,-0.07491 1.04914,-0.14981 1.57371,-0.07491c0.29976,0 0.52457,0.07491 0.82433,0.14981c0.22481,0.14981 0.59951,0.29962 0.74938,0.44943l0.59951,0.52434c0.22481,0.14981 0.44964,0.29962 0.67445,0.37453c0.44963,0.29962 0.9742,0.44943 1.42383,0.59924c0.89927,0.29962 1.79853,0.52433 2.62285,0.67414c1.57371,0.29962 2.62285,0.44943 2.62285,0.44943c0,0 -1.12408,0 -2.62285,-0.07491z" fill="#519b3d"/><path d="M372.42715,148.93879c-0.52457,-0.14981 -1.34889,-0.29962 -2.09828,-0.29962c-0.37469,0 -0.74939,0.07491 -1.12408,0.07491c-0.37469,0.07491 -0.67444,0.07491 -0.9742,0.14981c-0.29976,0.07491 -0.59951,0.14981 -0.74939,0.14981c-0.22481,0.07491 -0.29976,0.07491 -0.29976,0.07491c0,0 0.07494,-0.07491 0.22482,-0.14981c0.14988,-0.07491 0.37469,-0.22472 0.67444,-0.29962c0.22481,-0.14981 0.59951,-0.22472 0.9742,-0.29962c0.37469,-0.07491 0.74939,-0.14981 1.19902,-0.14981c0.37469,0 0.82432,0.0749 1.19901,0.14981c0.37469,0.07491 0.67445,0.22472 0.9742,0.37453c0.52457,0.29962 0.82433,0.59924 0.82433,0.59924c0,0 -0.29976,-0.22472 -0.82433,-0.37453z" fill="#519b3d"/><path d="M373.70111,147.44069c-0.14988,-0.29962 -0.37469,-0.59924 -0.67445,-0.89886c-0.07494,-0.14981 -0.29976,-0.29962 -0.44963,-0.37452c-0.22481,-0.07491 -0.37469,-0.14981 -0.52457,-0.22472c-0.14988,-0.07491 -0.29975,-0.14981 -0.37469,-0.14981c-0.07494,-0.07491 -0.14988,-0.07491 -0.14988,-0.07491c0,0 0.07494,0 0.14988,0c0.14988,-0.07491 0.29975,-0.07491 0.44963,-0.07491c0.14988,0 0.3747,0.07491 0.59951,0.14981c0.07494,0.07491 0.22481,0.07491 0.29975,0.14981c0.07494,0.07491 0.22481,0.14981 0.29976,0.22472c0.37469,0.37453 0.59951,0.82395 0.59951,1.19848c0.07494,0.37453 0,0.59924 0,0.59924c0,0 -0.07494,-0.22472 -0.22482,-0.52434z" fill="#519b3d"/><path d="M371.7527,150.96122c-0.14988,0.14981 -0.44963,0.37452 -0.74939,0.52433c-0.29976,0.14981 -0.67444,0.22472 -0.89926,0.22472c-0.29976,0 -0.44964,-0.07491 -0.44964,-0.07491c0,0 0,0 0.07494,-0.07491c0.07494,0 0.22481,-0.07491 0.29976,-0.14981c0.22481,-0.07491 0.52457,-0.22471 0.82432,-0.37452c0.29976,-0.07491 0.59951,-0.22472 0.82433,-0.29962c0.29976,-0.07491 0.44963,-0.14981 0.44963,-0.14981c0,0 -0.07494,0.14981 -0.37469,0.37453z" fill="#519b3d"/><g><path d="M361.48612,139.95019c0,0 -4.64619,-6.66654 -11.99017,-8.23954c-4.34643,-0.89886 -6.96929,-5.76768 -6.96929,-5.76768c5.2457,3.82015 8.01843,1.72281 13.18919,2.62167c5.2457,0.89886 11.24079,7.41559 11.24079,7.41559c-3.52211,0.07491 -5.47052,3.96996 -5.47052,3.96996z" fill="#f1f2dc"/><path d="M361.2613,140.77415c-1.27396,-0.44943 -1.72359,-2.77149 -1.72359,-2.77149c0.67444,-2.9962 5.47052,-3.89505 5.47052,-3.89505c1.64865,0.07491 2.77272,2.32206 2.77272,2.32206" fill="#7cbf2e"/><path d="M366.28219,134.85665c-0.14988,-0.14981 -0.29976,-0.22471 -0.44963,-0.29962c-0.14988,-0.07491 -0.3747,-0.14981 -0.59951,-0.14981c-0.22481,0 -0.44963,0 -0.74939,0.07491c-0.29976,0.07491 -0.52457,0.14981 -0.82432,0.22471c-0.22481,0.07491 -0.52457,0.22472 -0.82432,0.37453c-0.29976,0.07491 -0.52457,0.29962 -0.82432,0.44943c-0.29976,0.14981 -0.52457,0.29962 -0.82433,0.52434c-0.22481,0.22472 -0.44963,0.37452 -0.67444,0.59924c-0.37469,0.37453 -0.74939,0.82395 -0.89927,1.27338c-0.14988,0.44943 -0.07494,0.82396 0,1.12358c0.14988,0.22472 0.22482,0.37453 0.22482,0.37453c0,0 -0.14988,-0.07491 -0.29976,-0.37453c-0.14988,-0.22472 -0.29976,-0.67415 -0.14988,-1.19848c0.07494,-0.52434 0.44964,-1.04866 0.89927,-1.49809c0.22481,-0.22472 0.52457,-0.44943 0.74939,-0.67415c0.22481,-0.22472 0.52457,-0.44943 0.82432,-0.59924c0.29976,-0.14981 0.5995,-0.29962 0.89926,-0.44943c0.29976,-0.14981 0.59951,-0.29962 0.89927,-0.37452c0.29976,-0.14981 0.59951,-0.22472 0.89927,-0.22472c0.29976,-0.07491 0.59951,-0.07491 0.82432,0c0.29976,0.07491 0.52457,0.14981 0.67444,0.29962c0.14988,0.14981 0.29976,0.22471 0.3747,0.37452c0.14988,0.22472 0.22481,0.37453 0.22481,0.37453c0,0 -0.07494,-0.14981 -0.37469,-0.22472z" fill="#519b3d"/><path d="M356.31536,135.08137c-0.74939,-0.44943 -1.87347,-1.12357 -2.99755,-1.64791c-0.52457,-0.29962 -1.12408,-0.52433 -1.64864,-0.74905c-0.52457,-0.22472 -1.04915,-0.44943 -1.49878,-0.59924c-0.44963,-0.14981 -0.82432,-0.29962 -1.12408,-0.37453c-0.29976,-0.07491 -0.44964,-0.14981 -0.44964,-0.14981c0,0 0.14988,0.07491 0.44964,0.07491c0.22481,0 0.67444,0.07491 1.12408,0.14981c0.22481,0 0.44964,0.07491 0.74939,0.14981c0.29976,0 0.52456,0.14981 0.82432,0.22472c0.52457,0.22472 1.12408,0.44943 1.72359,0.74905c1.19901,0.52434 2.24815,1.27338 2.99754,1.87262c0.74939,0.59924 1.19902,1.04867 1.19902,1.04867c0,0 -0.52457,-0.29962 -1.34889,-0.74905z" fill="#c9bd9b"/><path d="M350.84484,128.48974c-0.52457,0 -1.12408,0 -1.72359,0c-0.59951,0 -1.27396,-0.07491 -1.9484,-0.22472c-0.29976,-0.07491 -0.67445,-0.14981 -0.9742,-0.22472c-0.29976,-0.07491 -0.59951,-0.14981 -0.89926,-0.29962c-0.29976,-0.14981 -0.59951,-0.22472 -0.82432,-0.37453c-0.22481,-0.14981 -0.44963,-0.22471 -0.67444,-0.37452c-0.44963,-0.29962 -0.74939,-0.52433 -0.9742,-0.74905c-0.14988,-0.22472 -0.29976,-0.29962 -0.29976,-0.29962c0,0 0.14988,0.07491 0.37469,0.22472c0.14988,0.07491 0.29976,0.22471 0.44963,0.29962c0.14988,0.07491 0.3747,0.22472 0.59951,0.29962c0.22481,0.07491 0.52457,0.14981 0.74939,0.29962c0.22481,0.14981 0.52457,0.22471 0.82432,0.29962c0.29976,0.07491 0.59951,0.14981 0.89927,0.22472c0.29976,0.07491 0.5995,0.14981 0.89926,0.22472c1.27396,0.22471 2.54791,0.29962 3.52211,0.37452c0.9742,0.07491 1.64865,0.07491 1.64865,0.07491c0,0 -0.67445,0.22472 -1.64865,0.22472z" fill="#c9bd9b"/></g><path d="M376.47383,141.29848c-0.44963,-0.89886 -1.04914,-1.94753 -1.79853,-2.9213c-0.22481,-0.22472 -0.37469,-0.44943 -0.59951,-0.67415c-0.22481,-0.22472 -0.37469,-0.44942 -0.59951,-0.67414c-0.22481,-0.14981 -0.3747,-0.37452 -0.59951,-0.52433c-0.22481,-0.14981 -0.3747,-0.29962 -0.59951,-0.44943c-0.14988,-0.07491 -0.37469,-0.22472 -0.52457,-0.29962c-0.14988,-0.07491 -0.29976,-0.14981 -0.44963,-0.22472c-0.22481,-0.07491 -0.37469,-0.14981 -0.37469,-0.14981c0,0 0.14988,0 0.44964,0.07491c0.29976,0.07491 0.67444,0.14981 1.12408,0.37453c0.22481,0.07491 0.44964,0.22472 0.67445,0.37453c0.22481,0.14981 0.44963,0.37452 0.67444,0.52433c0.44963,0.37453 0.89926,0.82395 1.27396,1.34829c0.14988,0.22472 0.37469,0.44943 0.52457,0.74905c0.14988,0.29962 0.29976,0.52433 0.44964,0.82395c0.29976,0.52434 0.52457,1.04867 0.67445,1.4981c0.37469,0.89886 0.44963,1.4981 0.44963,1.4981c0,0 -0.22481,-0.59924 -0.74938,-1.34829z" fill="#519b3d"/><path d="M370.47875,160.54905c-0.52457,0 -1.19902,0 -1.87347,-0.07491c-0.67444,-0.07491 -1.42383,-0.14981 -2.17321,-0.29962c-0.37469,-0.07491 -0.74939,-0.14981 -1.12408,-0.22471c-0.37469,0 -0.67444,-0.14981 -1.04914,-0.22472c-0.67444,-0.22472 -1.27396,-0.44943 -1.79852,-0.67415c-0.22481,-0.14981 -0.44964,-0.29962 -0.67445,-0.37453c-0.22481,-0.07491 -0.37469,-0.22472 -0.52457,-0.29962c-0.29976,-0.22472 -0.44963,-0.29962 -0.44963,-0.29962c0,0 0.14988,0.07491 0.44963,0.22472c0.14988,0.07491 0.29976,0.14981 0.52457,0.22472c0.14988,0.07491 0.44964,0.14981 0.67445,0.22472c0.52457,0.22472 1.12408,0.37453 1.79852,0.52434c0.37469,0.07491 0.67444,0.14981 1.04914,0.22472c0.29976,0 0.67445,0.07491 1.04914,0.14981c0.67444,0.14981 1.42383,0.22472 2.09828,0.29962c0.67444,0.07491 1.3489,0.14981 1.87347,0.22471c1.12408,0.14981 1.87347,0.22472 1.87347,0.22472c0,0 -0.74939,0.07491 -1.72359,0.14981z" fill="#519b3d"/><path d="M391.46155,155.83004c-0.14988,-0.52434 -0.29975,-1.12357 -0.59951,-1.79772c-0.29976,-0.67415 -0.67445,-1.34829 -1.27396,-2.02244c-0.14988,-0.14981 -0.29976,-0.29962 -0.44963,-0.44943c-0.14988,-0.14981 -0.37469,-0.29962 -0.52457,-0.44943c-0.37469,-0.22472 -0.82432,-0.52434 -1.27396,-0.74905c-0.89927,-0.59924 -1.64865,-1.42319 -2.32309,-2.32205c-0.67444,-0.89886 -1.27396,-1.94753 -1.79853,-2.9962c-0.52457,-1.04867 -1.04914,-2.09734 -1.57371,-3.14601c-0.29976,-0.52434 -0.59951,-1.04867 -0.89926,-1.573c-0.29976,-0.52434 -0.52457,-1.04867 -0.82433,-1.573c-0.59951,-1.04867 -1.19901,-1.94752 -1.9484,-2.77148c-0.74939,-0.89886 -1.57371,-1.573 -2.39803,-2.09734c-0.44963,-0.22472 -0.82432,-0.52434 -1.27396,-0.67415c-0.44963,-0.22472 -0.82433,-0.44943 -1.27396,-0.52433c-0.82432,-0.29962 -1.64865,-0.37453 -2.3231,-0.52434c-0.74939,0 -1.3489,-0.07491 -1.87347,-0.07491c-1.04914,0.07491 -1.64864,0.07491 -1.64864,0.07491c0,0 0.5995,-0.07491 1.64864,-0.14981c0.52457,-0.07491 1.12408,0 1.87347,0c0.67444,0.07491 1.57371,0.14981 2.39803,0.44943c0.44963,0.07491 0.89927,0.22471 1.3489,0.44943c0.44963,0.14981 0.89926,0.44943 1.34889,0.67415c0.44963,0.22472 0.82432,0.59924 1.27396,0.89886c0.37469,0.29962 0.82432,0.67414 1.19902,1.12357c0.74939,0.89886 1.42383,1.79772 2.02335,2.84638c0.29976,0.52434 0.52457,1.04867 0.82432,1.573c0.22481,0.52434 0.59951,1.04867 0.89926,1.573c0.59951,1.12357 1.04914,2.17224 1.57371,3.22091c0.52457,1.04867 1.04915,2.02244 1.72359,2.9213c0.67444,0.89886 1.34889,1.64791 2.17322,2.24715c0.44963,0.29962 0.82433,0.59923 1.27396,0.82395c0.22481,0.14981 0.44963,0.29962 0.59951,0.44943c0.14988,0.22472 0.29976,0.37453 0.44964,0.52434c0.59951,0.67415 0.9742,1.42319 1.27396,2.09734c0.29976,0.67415 0.44963,1.27338 0.52457,1.79772c0.22481,1.04867 0.22481,1.64791 0.22481,1.64791c0,0 0,-0.59923 -0.37469,-1.4981z" fill="#519b3d"/></g><g><path d="M347.17285,141.82282c-2.09828,-1.19848 -2.77273,-3.67034 -1.42383,-3.29582c1.3489,0.44943 3.59705,-0.44943 7.86855,-1.64791c4.2715,-1.27338 6.66953,2.54677 4.72113,5.61787c-2.39803,3.74525 -9.1425,0.52433 -11.16584,-0.67415z" fill="#7cbf2e"/><path d="M358.26376,142.12244c-0.37469,0.07491 -0.9742,0.07491 -1.57371,-0.14981c-0.67444,-0.22472 -1.27396,-0.67414 -1.87347,-1.19848l-0.07494,-0.07491l-0.14988,-0.07491c-0.07494,-0.07491 -0.14988,-0.14981 -0.22482,-0.14981c-0.14988,0 -0.29976,-0.07491 -0.52457,-0.07491c-0.37469,0 -0.82432,0 -1.19901,0.07491c-0.82432,0.07491 -1.64865,0.22472 -2.47298,0.29962c-0.37469,0 -0.74938,0 -1.12408,0c-0.37469,0 -0.74938,-0.07491 -1.04914,-0.14981c-0.29976,-0.07491 -0.59951,-0.22472 -0.82433,-0.29962c-0.22481,-0.07491 -0.44964,-0.22472 -0.59951,-0.29962c-0.29976,-0.22472 -0.44963,-0.37453 -0.44963,-0.37453c0,0 0.22481,0.07491 0.52457,0.22472c0.14988,0.07491 0.37469,0.14981 0.59951,0.22472c0.22481,0.07491 0.52457,0.07491 0.82432,0.14981c0.29976,0.07491 0.59951,0.07491 0.9742,0.07491c0.37469,0 0.74938,0 1.12408,-0.07491c0.74939,-0.07491 1.57371,-0.22472 2.39803,-0.37453c0.37469,-0.07491 0.82432,-0.07491 1.27396,-0.07491c0.22481,0 0.44964,0.07491 0.67445,0.14981c0.14988,0 0.22481,0.07491 0.29975,0.14981l0.14988,0.07491c0.07494,0.07491 0.07494,0.07491 0.14988,0.14981c0.52457,0.52434 1.12408,1.04867 1.64865,1.27338c0.52457,0.22472 1.04914,0.29962 1.42383,0.29962c0.37469,0 0.59951,0 0.59951,0c0,0 -0.22481,0.07491 -0.52457,0.22472z" fill="#519b3d"/><path d="M356.54017,143.99506c-0.52457,0.29962 -1.3489,0.44943 -2.17322,0.44943c-0.22481,0.07491 -0.37469,0 -0.5995,0c-0.22481,0 -0.3747,-0.0749 -0.59951,-0.0749c-0.14988,-0.07491 -0.37469,-0.07491 -0.52457,-0.14981c-0.14988,0 -0.29976,-0.07491 -0.44963,-0.14981c-0.29976,-0.07491 -0.52457,-0.22472 -0.67445,-0.29962c-0.14988,-0.07491 -0.22482,-0.14981 -0.22482,-0.14981c0,0 0.14988,0 0.29976,0.07491c0.14988,0.07491 0.37469,0.07491 0.67444,0.14981c0.52457,0.14981 1.34889,0.22472 2.09828,0.22472c0.37469,0 0.74939,-0.07491 1.12408,-0.07491c0.37469,-0.07491 0.67444,-0.07491 0.9742,-0.14981c0.59951,-0.07491 0.9742,-0.22472 0.9742,-0.22472c0,0 -0.29976,0.22472 -0.89927,0.37453z" fill="#519b3d"/><path d="M358.26376,138.37719c-0.14988,-0.22472 -0.44963,-0.52433 -0.82432,-0.82395c-0.37469,-0.29962 -0.89927,-0.52434 -1.49878,-0.67415c-0.29976,-0.07491 -0.5995,-0.0749 -0.89926,-0.0749c-0.29976,0.07491 -0.67445,0.0749 -0.9742,0.14981c-1.3489,0.29962 -2.62285,0.74905 -3.59705,0.97376c-0.9742,0.22472 -1.64865,0.29962 -1.64865,0.29962c0,0 0.59951,-0.14981 1.57371,-0.52434c0.9742,-0.37453 2.24816,-0.89885 3.59706,-1.19847c0.29976,-0.07491 0.67445,-0.14981 1.04914,-0.14981c0.37469,0 0.74938,0.07491 1.04914,0.14981c0.67444,0.14981 1.19902,0.52433 1.57371,0.89885c0.37469,0.29962 0.59951,0.74905 0.74939,0.97376c0.14988,0.29962 0.22481,0.44943 0.22481,0.44943c0,0 -0.07493,-0.14981 -0.37469,-0.44943z" fill="#519b3d"/></g></g><g><path d="M161.47506,265.56578c-0.89927,1.19848 -2.54791,4.34448 -2.62285,5.69277c0,1.34829 1.34889,1.42319 0.9742,3.29582c-0.3747,1.79772 -2.02334,2.02243 -2.99754,1.19848c-0.9742,-0.82396 -0.89926,-1.12357 -0.89926,-1.79772c0,0 -0.67445,0.22472 -1.42383,-0.14981c-0.9742,-0.44943 -1.12408,-1.42319 -0.74939,-2.24715c0.3747,-0.82396 0.14988,-1.27339 0.14988,-1.27339c0,0 -1.27396,0.37453 -2.02334,-0.37453c-1.04914,-0.97377 -0.74938,-2.02243 0.44964,-3.14601c1.12408,-1.12358 1.27395,-2.62167 1.19901,-5.01863c-0.07494,-1.72282 2.92261,-3.22091 5.32064,-6.81635c2.62285,-3.89506 4.87101,-2.17225 6.66953,0.14981c3.37223,4.11977 -0.67445,6.29201 -4.04668,10.48669z" fill="#7cbf2e"/><path d="M156.22936,273.80533c0.14988,-0.14981 0.44963,-0.29962 0.67444,-0.59924c0.14988,-0.14981 0.22482,-0.29962 0.29976,-0.52433c0,-0.14981 0.07494,-0.37453 0.07494,-0.59924c0,-0.22472 0,-0.44943 -0.07494,-0.67415c0,-0.22472 -0.07494,-0.44943 -0.14988,-0.74905c-0.07494,-0.52434 0,-1.04867 0.07494,-1.573c0.07494,-0.44943 0.29976,-0.89886 0.44963,-1.27338c0.14988,-0.37453 0.37469,-0.67415 0.52457,-0.82396c0.14988,-0.14981 0.22482,-0.22472 0.22482,-0.22472c0,0 -0.07494,0.07491 -0.14988,0.29962c-0.14988,0.14981 -0.22482,0.44943 -0.3747,0.82396c-0.14988,0.37453 -0.22482,0.82395 -0.29976,1.27338c0,0.44943 -0.07494,0.97376 0,1.42319c0,0.22472 0.07494,0.44943 0.14988,0.74905c0.07494,0.29962 0.07493,0.52434 0.07493,0.82396c-0.07494,0.52434 -0.29975,0.97376 -0.5995,1.27338c-0.14988,0.14981 -0.29976,0.22472 -0.44964,0.29962c-0.14988,0.07491 -0.29975,0.14981 -0.37469,0.14981c-0.22482,0.07491 -0.3747,0.07491 -0.3747,0.07491c0,0 0.14988,0 0.29976,-0.14981z" fill="#519b3d"/><path d="M154.20602,270.20989c0.22482,-0.07491 0.37469,-0.22472 0.5995,-0.44943c0.44963,-0.37453 0.74939,-1.12357 0.82433,-1.87262c0.07494,-0.82396 0.14988,-1.64791 0.29976,-2.24715c0.07494,-0.29962 0.22482,-0.52434 0.29976,-0.67415c0.07494,-0.14981 0.14987,-0.22472 0.14987,-0.22472c0,0 -0.14987,0.37453 -0.14987,0.97377c-0.07494,0.59924 -0.07494,1.42319 -0.14988,2.24715c-0.07494,0.14981 -0.07494,0.37452 -0.14988,0.59924c-0.07494,0.22472 -0.14988,0.44943 -0.22482,0.59924c-0.22482,0.37453 -0.44963,0.67414 -0.74938,0.82395c-0.52457,0.37453 -0.97421,0.37453 -0.97421,0.37453c0,0 0.07494,-0.07491 0.22482,-0.14981z" fill="#519b3d"/><path d="M152.18267,269.31102c0.3747,-0.59924 0.82432,-1.12357 1.27396,-0.22471c0.67444,1.4981 -2.54791,1.573 -2.54791,1.573c0.82432,-0.37453 0.89926,-0.59924 1.27396,-1.34829z" fill="#a1af93"/><path d="M154.28096,273.20608c0.29976,-0.67415 0.67445,-1.27338 1.27396,-0.44943c0.9742,1.27339 -2.24816,1.94753 -2.24816,1.94753c0.67444,-0.52434 0.74938,-0.82396 0.9742,-1.4981z" fill="#a1af93"/><path d="M156.75393,275.82776c0,-0.74905 0.22482,-1.4232 1.04914,-0.82396c1.27396,0.97377 -1.49877,2.62167 -1.49877,2.62167c0.52457,-0.74905 0.44963,-1.04867 0.44963,-1.79772z" fill="#a1af93"/><path d="M232.74165,197.55209c3.74693,13.48289 -7.86855,36.70342 -18.50983,37.52738c-16.18673,1.27338 -26.15356,3.74525 -31.39926,4.26958c-5.09582,0.59924 -6.44472,2.39696 -16.56143,20.59886c-2.54791,4.5692 -11.24079,9.66274 -8.01843,-0.89886c0.59951,-2.09734 5.47052,-18.127 9.29238,-22.6962c7.11917,-8.46426 11.0909,-6.1422 15.13759,-7.79011c5.09582,-2.02244 11.4656,-7.34068 9.44226,-19.62509c-3.74693,-23.22053 31.47421,-44.71826 40.61671,-11.38556z" fill="#7cbf2e"/><path d="M203.44066,189.01293c0.9742,-5.01863 9.44226,-5.31825 14.61302,-3.67034c5.17076,1.72281 2.09828,6.0673 -1.79853,8.83878c-3.89681,2.77149 -13.71376,0 -12.8145,-5.16844z" fill="#89ce30"/><path d="M207.41241,197.77681c4.2715,0.29962 8.16831,4.4943 3.89681,4.56921c-6.74447,0.14981 -8.09337,-4.94373 -3.89681,-4.56921z" fill="#89ce30"/><path d="M220.37678,197.17757c3.14742,-0.14981 1.64864,3.22091 -0.59951,3.82016c-2.17322,0.67415 -3.14742,-3.67034 0.59951,-3.82015z" fill="#89ce30"/><path d="M231.01806,215.9038c-0.44963,1.12357 -1.04914,2.77149 -1.9484,4.71902c-0.89927,1.94753 -1.94841,4.11977 -3.44718,6.36692c-0.74938,1.12357 -1.57371,2.24715 -2.47297,3.29582c-0.89927,1.04867 -1.94841,2.02243 -3.14742,2.84639c-1.19902,0.82396 -2.54791,1.34829 -3.89681,1.72282c-1.34889,0.37453 -2.69778,0.52433 -4.04668,0.67414c-1.34889,0.14981 -2.62286,0.22471 -3.82187,0.29962c-1.19902,0.07491 -2.32309,0.22471 -3.37223,0.29962c-2.09828,0.22472 -3.89681,0.44943 -5.09583,0.59924c-1.27396,0.22472 -1.9484,0.29962 -1.9484,0.29962c0,0 0.67445,-0.14981 1.87347,-0.37453c1.27396,-0.22472 2.99754,-0.52433 5.09582,-0.74905c2.09828,-0.29962 4.57125,-0.52433 7.1941,-0.74905c1.27396,-0.14981 2.62285,-0.29962 3.97175,-0.67414c1.34889,-0.37453 2.62285,-0.97376 3.74693,-1.72281c1.12408,-0.74905 2.17321,-1.64791 3.07248,-2.69658c0.89927,-1.04867 1.72359,-2.09734 2.47297,-3.22091c1.49877,-2.17225 2.69779,-4.34448 3.59706,-6.21711c1.87347,-3.74525 2.84767,-6.44182 2.84767,-6.44182c0,0 -0.14988,0.67414 -0.67445,1.72281z" fill="#519b3d"/><path d="M190.47629,222.34563c0.22482,-0.44943 0.52457,-1.04867 0.74938,-1.79772c0.29976,-0.74905 0.44963,-1.64791 0.67444,-2.62168c0.07494,-0.44943 0.14988,-0.97376 0.22482,-1.4981c0.07494,-0.52434 0.14988,-1.04866 0.14988,-1.573c0.07494,-0.52434 0.07494,-1.04867 0.07494,-1.573c0,-0.52434 0,-1.04867 0,-1.573c0,-0.44943 0,-0.97376 0,-1.42319c0,-0.44943 -0.07494,-0.89885 -0.07494,-1.27338c-0.07494,-0.82396 -0.14988,-1.4981 -0.14988,-1.94753c-0.07494,-0.44943 -0.07493,-0.74905 -0.07493,-0.74905c0,0 0.07493,0.29962 0.14987,0.74905c0.07494,0.44943 0.22482,1.12357 0.29976,1.94753c0.07494,0.37453 0.07494,0.82395 0.14988,1.27338c0,0.44943 0.07494,0.89886 0.07494,1.42319c0,0.52434 0,1.04867 0,1.573c0,0.59924 0,1.12357 -0.07494,1.64791c0,0.52434 -0.07494,1.04866 -0.14988,1.573c-0.07494,0.52434 -0.22482,1.04867 -0.29976,1.573c-0.07494,0.52434 -0.22481,0.97376 -0.37469,1.42319c-0.14988,0.37453 -0.29976,0.82396 -0.44964,1.19848c-0.29976,0.74905 -0.5995,1.34829 -0.89926,1.72281c-0.22482,0.37453 -0.44964,0.59924 -0.44964,0.59924c0,0 0.14988,-0.22471 0.44964,-0.67414z" fill="#519b3d"/><path d="M184.78096,239.12434c-0.59951,0.07491 -1.42383,0.22472 -2.47297,0.44943c-0.52457,0.14981 -1.12408,0.29962 -1.64865,0.44943c-0.29976,0.14981 -0.59951,0.22472 -0.82432,0.37453c-0.22482,0.07491 -0.52457,0.29962 -0.74939,0.52434c-1.04914,0.82396 -1.9484,1.87262 -2.77272,2.9962c-0.89927,1.12357 -1.64865,2.24715 -2.39804,3.37072c-0.74938,1.04867 -1.42383,2.09733 -1.9484,2.9962c-1.12408,1.79772 -1.87347,2.9962 -1.87347,2.9962c0,0 0.14987,-0.29962 0.44963,-0.82396c0.29976,-0.52434 0.67445,-1.34829 1.19902,-2.24715c0.44963,-0.89886 1.12408,-1.94753 1.79852,-3.0711c0.67444,-1.12357 1.49877,-2.32206 2.3231,-3.44563c0.82432,-1.12357 1.79852,-2.17224 2.84766,-2.99619c0.29976,-0.22472 0.52457,-0.44943 0.82433,-0.59924c0.29976,-0.22472 0.59951,-0.29962 0.89926,-0.37452c0.52457,-0.22472 1.12408,-0.29962 1.64865,-0.37453c1.04914,-0.14981 1.9484,-0.14981 2.54791,-0.22472c0.59951,-0.07491 0.9742,-0.07491 0.9742,-0.07491c0,0 -0.29975,0.07491 -0.82432,0.07491z" fill="#519b3d"/></g><g><path d="M204.26499,87.29202c46.83661,-11.38555 60.92506,17.30304 60.92506,17.30304c-18.95946,25.31787 1.27396,71.2346 1.27396,71.2346c-24.50492,-27.11559 -67.2199,0.37453 -67.2199,0.37453c1.27396,-32.73346 -28.17691,-18.0521 -28.17691,-18.0521c9.06757,-31.9095 -13.48894,-30.86083 -20.45823,-27.63992c0,0 31.62408,-37.827 53.65602,-43.22015z" fill="#b4d189"/><path d="M268.7871,181.22282c-3.37223,-11.31064 -12.06512,-15.87985 -15.96192,-32.65856c-3.52212,-15.05589 4.79607,-35.05551 4.79607,-35.05551c0,0 -13.11425,3.22091 -27.27764,10.86122c-14.7629,7.93993 -32.44841,56.25361 -32.44841,56.25361c0,0 4.72114,-24.79353 13.86364,-46.06654c9.14251,-21.273 46.2371,-28.53879 46.2371,-28.53879c0,0 -29.90049,-4.86882 -43.16462,0.52434c-13.26413,5.39316 -45.86241,55.72928 -45.86241,55.72928c14.7629,-36.3289 31.92383,-53.63194 42.49017,-62.54563c10.56634,-8.91369 47.28624,-0.74905 47.28624,-0.74905c-3.22236,-7.41559 -32.22359,-11.53536 -49.60934,-9.43802c-17.31081,2.17225 -62.94841,45.54221 -62.94841,45.54221c0,0 37.6941,-48.23878 60.85012,-51.83422c29.37592,-4.5692 60.47543,9.1384 60.47543,9.1384c0.82432,-7.93993 -8.46806,-9.2133 -8.46806,-9.2133c7.5688,-1.34829 13.7887,5.24334 16.03686,14.08213c2.24815,8.83879 -12.21499,27.04068 -14.31327,42.546c-2.09828,15.43042 22.3317,38.72586 22.3317,38.72586c1.3489,6.1422 -12.28992,10.18707 -14.31327,2.69658z" fill="#7cbf2e"/><path d="M278.9038,174.33156c-1.27396,-1.34829 -3.07248,-3.22091 -5.09582,-5.69277c-2.02334,-2.47187 -4.34644,-5.39316 -6.51966,-8.68897c-2.17322,-3.37072 -4.34643,-7.04107 -5.69533,-11.08593c-0.67445,-2.02244 -1.12408,-4.19467 -1.12408,-6.29201c0.07494,-2.09734 0.44964,-4.11977 0.89927,-6.0673c0.89927,-3.89506 2.17322,-7.41559 3.37223,-10.33689c1.19901,-2.9213 2.39804,-5.31825 3.22236,-6.96616c0.82432,-1.64791 1.34889,-2.54677 1.34889,-2.54677c0,0 -2.02334,3.74525 -4.34644,9.66274c-1.12408,2.9213 -2.32309,6.44183 -3.22235,10.26198c-0.44963,1.94753 -0.74939,3.96996 -0.82433,5.9924c0,2.09734 0.44963,4.11977 1.12408,6.1422c1.27396,3.96996 3.37223,7.71521 5.54546,11.01103c2.17322,3.37072 4.34644,6.29201 6.36978,8.76388c3.97174,4.94373 6.96929,7.93992 6.96929,7.93992c0,0 -0.74939,-0.74905 -2.02335,-2.09734z" fill="#519b3d"/><path d="M258.97015,106.01825c-1.04914,0.22472 -2.47298,0.59924 -4.19656,1.04867c-1.72358,0.44943 -3.74693,1.04867 -5.84521,1.72281c-2.09828,0.67414 -4.34644,1.4232 -6.59459,2.32206c-2.24815,0.82395 -4.42138,1.79771 -6.44472,2.69657c-2.02334,0.97377 -3.8968,1.87263 -5.47051,2.69658c-1.57371,0.89886 -2.92261,1.573 -3.82187,2.09733c-0.89927,0.52433 -1.42383,0.82396 -1.42383,0.82396c0,0 0.44963,-0.29962 1.34889,-0.89886c0.82432,-0.59924 2.09828,-1.34829 3.67199,-2.24715c1.57371,-0.82395 3.44718,-1.79772 5.47052,-2.77148c2.02334,-0.97377 4.19656,-1.87262 6.44472,-2.77148c2.24815,-0.82395 4.49632,-1.573 6.66953,-2.24715c2.17322,-0.59924 4.19655,-1.12358 5.92014,-1.57301c1.72359,-0.44943 3.14742,-0.67414 4.19656,-0.89886c0.9742,-0.22472 1.57371,-0.29962 1.57371,-0.37452c0,0 -0.5995,0.14981 -1.49877,0.37452z" fill="#519b3d"/><path d="M259.41978,99.27681c-1.04914,-0.22472 -2.62285,-0.52433 -4.49632,-0.89886c-1.87347,-0.37453 -4.12162,-0.74904 -6.44472,-1.04866c-2.39803,-0.29962 -4.87101,-0.59924 -7.41892,-0.82395c-1.27396,-0.14981 -2.47297,-0.22472 -3.74693,-0.29962c-1.27396,-0.07491 -2.47297,-0.0749 -3.67199,-0.14981c-1.19902,-0.07491 -2.32309,-0.07491 -3.44717,-0.07491c-1.12408,0 -2.09829,0 -3.07249,0c-0.9742,0 -1.87347,0 -2.62285,0c-0.82432,0 -1.49877,0.07491 -2.02334,0.07491c-1.12408,0.07491 -1.72359,0.0749 -1.72359,0.0749c0,0 0.59951,-0.0749 1.72359,-0.14981c0.59951,0 1.27396,-0.07491 2.02334,-0.14981c0.82432,-0.07491 1.64865,-0.07491 2.62285,-0.14981c0.9742,-0.07491 1.94841,-0.07491 3.07249,-0.07491c1.12408,0 2.24815,-0.07491 3.44717,0c1.19902,0.07491 2.39803,0.07491 3.67199,0.14981c1.19902,0.14981 2.47297,0.14981 3.74693,0.29962c2.54791,0.22472 5.09583,0.52433 7.41892,0.89886c1.19902,0.22472 2.32309,0.44943 3.37223,0.59924c1.04914,0.22472 2.09828,0.37452 2.99755,0.59923c1.87347,0.37453 3.44717,0.74905 4.49631,1.04867c1.04914,0.29962 1.64865,0.44943 1.64865,0.44943c0,0 -0.59951,-0.14981 -1.57371,-0.37453z" fill="#519b3d"/><path d="M265.41487,91.33689c-1.42383,-0.52433 -3.59706,-1.27338 -6.14497,-2.09734c-1.27396,-0.44943 -2.69779,-0.82395 -4.19656,-1.27339c-1.49877,-0.44943 -3.07248,-0.82395 -4.72113,-1.27339c-1.64865,-0.37453 -3.37224,-0.82395 -5.09583,-1.19848c-1.72358,-0.37453 -3.44717,-0.74904 -5.2457,-1.04866c-0.82432,-0.14981 -1.72358,-0.29962 -2.62285,-0.44943c-0.89927,-0.14981 -1.72358,-0.22472 -2.62285,-0.37453c-0.89927,-0.14981 -1.79853,-0.29962 -2.62285,-0.37452c-0.82432,-0.14981 -1.72359,-0.22472 -2.54791,-0.29962c-0.82432,-0.07491 -1.64865,-0.14981 -2.47297,-0.22472c-0.82432,-0.07491 -1.64865,-0.07491 -2.39803,-0.14981c-0.74938,-0.07491 -1.49877,-0.0749 -2.24815,-0.14981c-0.74938,-0.07491 -1.42384,-0.07491 -2.09828,-0.07491c-1.34889,0 -2.54791,-0.07491 -3.67199,-0.07491c-1.12408,0 -2.02334,0.07491 -2.84767,0.07491c-1.57371,0.07491 -2.47297,0.07491 -2.47297,0.07491c0,0 0.89926,-0.07491 2.47297,-0.14981c0.82432,0 1.72359,-0.07491 2.84767,-0.14981c1.04914,0 2.32309,0 3.67199,0c0.67444,0 1.3489,0 2.09828,0c0.74938,0 1.49877,0.07491 2.24815,0.07491c0.82432,0.07491 1.57371,0.07491 2.39803,0.14981c0.82432,0.07491 1.64865,0.14981 2.47297,0.22471c0.82432,0.07491 1.64864,0.14981 2.54791,0.22472c0.89927,0.14981 1.72358,0.22472 2.62285,0.37453c0.82432,0.14981 1.72358,0.22471 2.62285,0.37452c0.89927,0.14981 1.79852,0.29962 2.69779,0.44943c1.72359,0.29962 3.52211,0.74904 5.2457,1.12357c1.79853,0.37453 3.44718,0.89886 5.09583,1.27338c1.64865,0.44943 3.22236,0.89886 4.72113,1.34829c1.42383,0.44943 2.84767,0.89886 4.12162,1.34829c1.27396,0.44943 2.39803,0.89886 3.44718,1.27338c0.9742,0.37453 1.87346,0.74904 2.62285,1.04866c1.42383,0.59924 2.24815,0.97377 2.24815,0.97377c0,0 -0.82432,-0.29962 -2.17321,-1.04866z" fill="#519b3d"/><path d="M267.43821,179.12548c0,-0.29962 -0.07494,-0.82395 -0.29976,-1.34829c-0.22481,-0.52434 -0.44963,-1.19848 -0.82432,-1.94753c-0.37469,-0.74905 -0.82432,-1.4981 -1.34889,-2.39696c-0.52457,-0.82396 -1.12408,-1.72282 -1.79853,-2.69658c-0.67445,-0.89886 -1.42383,-1.87262 -2.17322,-2.92129c-1.49877,-2.02244 -2.9226,-4.41939 -4.12162,-6.81635c-1.19902,-2.39696 -2.17322,-4.94373 -2.99755,-7.34069c-0.82432,-2.39696 -1.34889,-4.71901 -1.72359,-6.74144c-0.3747,-2.02244 -0.52457,-3.67034 -0.52457,-4.86882c0,-0.59924 0.07494,-1.04867 0.07494,-1.34829c0.07494,-0.29962 0.07493,-0.44943 0.07493,-0.44943c0,0 0,0.14981 0,0.44943c0,0.29962 0,0.74905 0,1.34829c0,1.12357 0.22482,2.84638 0.67445,4.79391c0.3747,2.02244 1.04914,4.26958 1.87347,6.66654c0.82432,2.39696 1.87347,4.86882 3.07248,7.26578c1.19902,2.39696 2.54792,4.71901 4.04669,6.74144c0.74939,1.04867 1.42383,2.02243 2.09828,2.9962c0.67444,0.97376 1.19902,1.87262 1.72359,2.77149c1.04914,1.79772 1.72358,3.37072 2.02334,4.49429c0.22481,0.59924 0.29976,1.04867 0.29976,1.34829c0,0.29962 0,0.44943 0,0.44943c0,0 0,-0.14981 -0.14988,-0.44943z" fill="#519b3d"/><path d="M258.44558,112.38517c-0.44963,0.89886 -0.9742,2.09734 -1.42383,3.29582c-0.52457,1.19848 -0.9742,2.47186 -1.27396,3.37072c-0.14988,0.44943 -0.29975,0.82395 -0.37469,1.12358c-0.07494,0.29962 -0.14988,0.44943 -0.14988,0.44943c0,0 0,-0.14981 0.07494,-0.44943c0.07494,-0.29962 0.07494,-0.74905 0.22481,-1.19848c0.22482,-0.97377 0.59951,-2.24714 1.04914,-3.44562c0.52457,-1.19848 1.12408,-2.39696 1.64865,-3.22092c0.22481,-0.44943 0.52457,-0.74905 0.67444,-0.97377c0.14988,-0.22472 0.29976,-0.29962 0.29976,-0.29962c0,0 -0.29975,0.52433 -0.74938,1.34829z" fill="#519b3d"/><path d="M258.59546,98.45285c-0.14988,-0.14981 -0.29976,-0.37452 -0.52457,-0.59923c-0.22481,-0.22472 -0.52457,-0.44943 -0.82432,-0.67415c-0.37469,-0.22472 -0.67444,-0.44943 -1.04914,-0.67414c-0.3747,-0.22472 -0.82433,-0.44943 -1.19902,-0.67414c-0.44963,-0.22472 -0.89926,-0.44943 -1.34889,-0.67415c-0.44963,-0.22472 -0.9742,-0.37452 -1.42383,-0.59924c-0.44963,-0.22472 -0.9742,-0.37452 -1.42383,-0.59924c-0.52457,-0.22472 -0.9742,-0.37453 -1.42383,-0.52434c-0.89927,-0.29962 -1.72359,-0.59924 -2.47297,-0.82395c-1.49877,-0.44943 -2.47297,-0.74905 -2.47297,-0.74905c0,0 0.22482,0.07491 0.67445,0.14981c0.3747,0.07491 1.04914,0.22471 1.79853,0.37452c0.74938,0.22472 1.64865,0.44943 2.54791,0.74905c0.44963,0.14981 0.9742,0.29962 1.42383,0.44943c0.44963,0.14981 0.9742,0.37453 1.42383,0.52434c0.44963,0.22472 0.9742,0.44943 1.42383,0.67414c0.44963,0.29962 0.89926,0.52433 1.34889,0.74905c0.44963,0.22472 0.82432,0.44943 1.19902,0.74905c0.37469,0.22472 0.67445,0.52434 0.9742,0.74905c0.29976,0.22472 0.52457,0.52433 0.74939,0.74905c0.14988,0.22472 0.29976,0.44942 0.44963,0.67414c0.22481,0.44943 0.29976,0.67414 0.29976,0.67414c0,0 -0.07493,-0.29962 -0.14988,-0.67414z" fill="#519b3d"/><path d="M267.43821,89.61407c0.14988,0.44943 0.22481,0.97377 0.29976,1.573c0,0.59924 0,1.27338 -0.29976,1.87262c-0.07494,0.14981 -0.22481,0.29962 -0.29976,0.44943c-0.07494,0.14981 -0.14987,0.22472 -0.22481,0.37453c-0.14988,0.22472 -0.22481,0.52433 -0.29976,0.74905c-0.14988,0.52433 0,1.04867 0.14988,1.4232c0.22481,0.37453 0.44964,0.67414 0.67445,0.82395c0.22481,0.14981 0.37469,0.14981 0.37469,0.14981c0,0 -0.22482,0 -0.44963,-0.07491c-0.22481,-0.07491 -0.59951,-0.29962 -0.82432,-0.74905c-0.22481,-0.44943 -0.3747,-1.04867 -0.29976,-1.64791c0,-0.29962 0.14988,-0.59924 0.29976,-0.89886c0.14988,-0.14981 0.22481,-0.22472 0.29975,-0.37453c0.07494,-0.14981 0.14988,-0.22471 0.22482,-0.37452c0.22481,-0.52433 0.29976,-1.12357 0.29976,-1.64791c0,-0.52433 -0.07493,-1.04867 -0.14988,-1.4981c-0.14988,-0.89886 -0.29976,-1.4981 -0.29976,-1.4981c0,0 0.29976,0.52433 0.52457,1.34829z" fill="#519b3d"/><path d="M246.30553,164.66882c-0.3747,-0.14981 -0.89926,-0.22472 -1.57371,-0.29962c-0.67444,-0.07491 -1.49877,-0.14981 -2.47297,-0.22472c-0.44963,-0.07491 -0.9742,-0.07491 -1.49877,-0.07491c-0.52457,0 -1.04914,0 -1.64865,0c-0.52457,0 -1.19902,0 -1.79853,0c-0.59951,0 -1.27396,0.07491 -1.9484,0.14981c-1.34889,0.07491 -2.77273,0.29962 -4.19656,0.44943c-0.67444,0.07491 -1.42383,0.22471 -2.17322,0.37452c-0.74938,0.14981 -1.49877,0.29962 -2.24816,0.44943c-0.74938,0.14981 -1.49877,0.37453 -2.24816,0.52434l-1.12408,0.29962l-1.12408,0.29962c-1.49877,0.44943 -3.07248,0.82395 -4.49632,1.34829c-0.74938,0.22472 -1.42383,0.52434 -2.17322,0.74905c-0.3747,0.14981 -0.67445,0.22471 -1.04914,0.37452c-0.3747,0.14981 -0.67444,0.29962 -1.04914,0.44943c-1.34889,0.52434 -2.62285,1.04866 -3.89681,1.573c-1.19902,0.52434 -2.39803,1.04867 -3.44717,1.573c-0.52457,0.22472 -1.04914,0.44943 -1.49877,0.67415c-0.44963,0.22472 -0.89926,0.44943 -1.34889,0.67414c-0.82432,0.44943 -1.57371,0.82396 -2.17322,1.12358c-1.27396,0.59924 -1.9484,0.97376 -1.9484,0.97376c0,0 0.67444,-0.37452 1.87346,-1.04867c0.59951,-0.29962 1.3489,-0.74905 2.17322,-1.19848c0.44963,-0.22472 0.89926,-0.44943 1.34889,-0.74905c0.44963,-0.22472 0.9742,-0.52434 1.49877,-0.74905c1.12408,-0.52434 2.24816,-1.04867 3.44717,-1.64791c1.19902,-0.52434 2.54791,-1.04866 3.89681,-1.64791c0.3747,-0.14981 0.67444,-0.29962 1.04914,-0.44943c0.29976,-0.14981 0.67445,-0.22472 1.04914,-0.37453c0.74938,-0.22472 1.42383,-0.52434 2.17322,-0.74905c1.42383,-0.59924 2.99755,-0.97376 4.49632,-1.42319l1.12408,-0.29962l1.12408,-0.22472c0.74938,-0.14981 1.49877,-0.37453 2.24816,-0.52434c0.74938,-0.14981 1.49877,-0.22471 2.24815,-0.37452c0.74938,-0.14981 1.49878,-0.29962 2.24816,-0.37453c1.49877,-0.14981 2.92261,-0.37453 4.2715,-0.37453c0.67444,0 1.34889,-0.07491 1.9484,-0.07491c0.67444,0 1.27396,0 1.87347,0c1.19902,0.07491 2.24816,0.14981 3.22236,0.22472c0.9742,0.07491 1.79853,0.14981 2.47297,0.29962c0.67444,0.07491 1.19902,0.22472 1.57371,0.29962c0.3747,0.07491 0.52457,0.14981 0.52457,0.14981c0,0 -0.14988,0 -0.74939,-0.14981z" fill="#7d9950"/><path d="M231.093,123.99544c-0.44963,0.22472 -1.04914,0.52433 -1.79853,1.04866c-0.74938,0.52433 -1.64864,1.19848 -2.54791,2.02244c-0.9742,0.89886 -1.9484,1.87262 -2.9226,3.0711c-2.02334,2.39696 -4.04668,5.39316 -5.99509,8.68897c-0.9742,1.64791 -1.94841,3.37072 -2.92261,5.16844c-0.9742,1.79772 -1.9484,3.59544 -2.84766,5.46806c-1.87347,3.67034 -3.67199,7.34068 -5.32064,10.86121c-1.64865,3.44563 -3.14742,6.74144 -4.42137,9.58784c-1.19902,2.77149 -2.24816,5.16844 -2.99755,6.81635c-0.67444,1.64791 -1.12408,2.62167 -1.12408,2.62167c0,0 0.3747,-0.97376 1.04914,-2.62167c0.67444,-1.64791 1.64865,-4.04486 2.84767,-6.89126c0.59951,-1.42319 1.27396,-2.9213 1.9484,-4.56921c0.67444,-1.64791 1.42383,-3.37072 2.24815,-5.09354c1.57371,-3.52053 3.37224,-7.26578 5.2457,-10.93612c0.44963,-0.97376 0.9742,-1.87262 1.42383,-2.77149c0.52457,-0.89886 0.9742,-1.79771 1.49877,-2.69657c0.9742,-1.79772 2.02335,-3.52053 2.99755,-5.16844c1.04914,-1.72281 2.02334,-3.29582 3.07248,-4.71901c0.9742,-1.4981 2.02335,-2.77148 3.07249,-3.96996c2.09828,-2.32206 4.04668,-3.96996 5.62039,-4.94373c0.74938,-0.52433 1.42383,-0.82395 1.87347,-0.97376c0.44963,-0.14981 0.67445,-0.22472 0.67445,-0.22472c0,0 -0.22482,0.07491 -0.67445,0.22472z" fill="#519b3d"/><path d="M171.66671,136.87909c-0.14988,-0.29962 -0.3747,-0.67414 -0.59951,-1.04867c-0.22482,-0.37453 -0.44962,-0.82395 -0.82432,-1.27338c-0.3747,-0.44943 -0.74939,-0.89886 -1.19902,-1.34829c-0.44963,-0.37453 -0.89926,-0.89886 -1.49877,-1.27338c-0.52457,-0.44943 -1.19902,-0.74904 -1.79853,-1.12357c-0.29976,-0.22472 -0.67445,-0.29962 -0.9742,-0.44943c-0.3747,-0.07491 -0.67444,-0.29962 -1.04914,-0.37453l-1.04914,-0.29962c-0.29976,-0.07491 -0.67444,-0.22472 -1.04914,-0.22472c-0.3747,-0.07491 -0.67444,-0.07491 -1.04914,-0.14981l-0.52457,-0.07491c-0.14988,0 -0.37469,0 -0.52457,0c-0.74938,0 -1.3489,-0.07491 -2.02334,-0.07491c-0.67444,0.07491 -1.27395,0.07491 -1.79852,0.14981c-0.29976,0 -0.59951,0.07491 -0.82433,0.07491c-0.29976,0.07491 -0.52457,0.07491 -0.74938,0.14981c-0.44963,0.07491 -0.89926,0.14981 -1.19902,0.22471c-0.67444,0.07491 -1.04914,0.14981 -1.04914,0.14981c0,0 0.37469,-0.0749 0.9742,-0.22471c0.29976,-0.07491 0.67444,-0.22472 1.12408,-0.29962c0.22482,0 0.44964,-0.07491 0.67445,-0.14981c0.29976,-0.07491 0.52457,-0.07491 0.82432,-0.14981c0.52457,-0.07491 1.12408,-0.14981 1.79853,-0.22472c0.59951,0 1.34889,0 2.02334,0c0.14988,0 0.3747,0 0.52457,0l0.52457,0.07491c0.3747,0.07491 0.74939,0.07491 1.12408,0.14981c0.3747,0 0.74938,0.14981 1.12408,0.22472l1.12408,0.29962c0.3747,0.14981 0.67444,0.29962 1.04914,0.44943c0.3747,0.14981 0.74938,0.22472 1.04914,0.44943c0.67444,0.37453 1.34889,0.74904 1.87347,1.19848c0.59951,0.44943 1.04914,0.97376 1.49877,1.42319c0.3747,0.44943 0.82432,0.97377 1.12408,1.4232c0.3747,0.44943 0.59951,0.97376 0.82432,1.34829c0.22482,0.37453 0.3747,0.74905 0.52457,1.04867c0.22482,0.59924 0.29976,0.97376 0.29976,0.97376c0,0 -0.14988,-0.37452 -0.29976,-1.04866z" fill="#7d9950"/><path d="M196.77113,161.97224c-0.22482,-0.29962 -0.44963,-0.74905 -0.74938,-1.12357c-0.14988,-0.22472 -0.3747,-0.44943 -0.52457,-0.67415c-0.14988,-0.22472 -0.3747,-0.44943 -0.59951,-0.67414c-0.22482,-0.22472 -0.52457,-0.44943 -0.74938,-0.67415c-0.29976,-0.22472 -0.52457,-0.44943 -0.82432,-0.67415c-0.29976,-0.22472 -0.59951,-0.44943 -0.89927,-0.67414c-0.29976,-0.22472 -0.5995,-0.37452 -0.9742,-0.59923c-0.14988,-0.07491 -0.3747,-0.22472 -0.52457,-0.29962c-0.14988,-0.07491 -0.29975,-0.14981 -0.52457,-0.22472c-0.3747,-0.14981 -0.74939,-0.29962 -1.12408,-0.44943c-0.3747,-0.07491 -0.82432,-0.22472 -1.19901,-0.29962l-0.59951,-0.14981c-0.14988,0 -0.3747,-0.07491 -0.59951,-0.07491c-0.82432,-0.07491 -1.64865,-0.22472 -2.47297,-0.22472c-0.89927,0 -1.64865,-0.07491 -2.47297,0.07491c-0.44963,0.07491 -0.82432,0.07491 -1.19902,0.14981c-0.3747,0.07491 -0.74938,0.07491 -1.12408,0.14981c-0.74938,0.14981 -1.42383,0.29962 -2.02334,0.44943c-0.67444,0.14981 -1.19902,0.29962 -1.72359,0.44943c-0.44963,0.14981 -0.89926,0.29962 -1.27396,0.37453c-0.74938,0.14981 -1.12408,0.29962 -1.12408,0.29962c0,0 0.44964,-0.14981 1.12408,-0.44943c0.3747,-0.14981 0.74938,-0.29962 1.27396,-0.44943c0.44963,-0.14981 1.04914,-0.37453 1.64865,-0.52434c0.59951,-0.14981 1.27396,-0.37453 2.02334,-0.52434c0.74938,-0.14981 1.49877,-0.22471 2.32309,-0.29962c0.74938,-0.07491 1.64865,-0.07491 2.47297,-0.07491c0.82432,0 1.72359,0.14981 2.54791,0.22472c0.22482,0 0.44964,0 0.67445,0.07491l0.5995,0.14981c0.44963,0.14981 0.89927,0.22472 1.27396,0.37453c0.44963,0.22472 0.82432,0.37453 1.19901,0.52434c0.22482,0.07491 0.3747,0.14981 0.59951,0.22472c0.14988,0.07491 0.3747,0.22472 0.52457,0.29962c0.3747,0.22472 0.74938,0.37452 1.04914,0.59923c0.29976,0.22472 0.5995,0.44943 0.89926,0.67415c0.29976,0.22472 0.59951,0.52433 0.82432,0.74905c0.22482,0.29962 0.44964,0.52434 0.67445,0.74905c0.22482,0.22472 0.37469,0.44943 0.5995,0.67414c0.14988,0.22472 0.29976,0.44943 0.44964,0.67415c0.29976,0.44943 0.52457,0.89886 0.67445,1.19848c0.29976,0.67415 0.44963,1.04867 0.44963,1.04867c0,0 -0.14987,-0.37453 -0.5995,-1.04867z" fill="#7d9950"/><path d="M220.30184,105.1943c-0.89927,0.22472 -2.17322,0.52434 -3.67199,1.04867c-0.74938,0.22472 -1.49877,0.52433 -2.32309,0.89886c-0.82432,0.37453 -1.57371,0.97377 -2.39804,1.4981c-1.57371,1.12358 -3.14742,2.47186 -4.64619,3.96996c-1.42383,1.4232 -2.84767,2.9962 -4.19656,4.41939c-1.34889,1.4232 -2.54791,2.77148 -3.59705,3.96996c-2.09828,2.32206 -3.52211,3.89505 -3.52211,3.89505c0,0 1.27396,-1.64791 3.29729,-4.04487c0.9742,-1.27339 2.17322,-2.62167 3.44717,-4.11977c1.27396,-1.4981 2.69779,-2.9962 4.19656,-4.4943c1.49877,-1.4981 3.07248,-2.84638 4.72113,-3.96996c0.82432,-0.52433 1.64865,-1.04867 2.47297,-1.42319c0.82432,-0.37453 1.64865,-0.67415 2.39803,-0.89886c1.49877,-0.44943 2.77272,-0.74905 3.67199,-0.89886c0.89927,-0.14981 1.42383,-0.22471 1.42383,-0.22471c0,0 -0.52457,0.14981 -1.27396,0.37452z" fill="#519b3d"/><path d="M147.68636,133.73308c0.9742,-0.89886 2.3231,-2.24715 4.04668,-3.82015c1.72359,-1.573 3.67199,-3.44563 5.84521,-5.39316c2.17322,-1.94753 4.49631,-4.04486 6.81941,-6.0673c2.39803,-2.02244 4.72113,-3.96996 6.96929,-5.84258c2.24815,-1.87262 4.34644,-3.52053 6.21991,-4.94373c0.89927,-0.67414 1.79852,-1.34829 2.54791,-1.87262c0.74938,-0.52433 1.42383,-0.97376 2.02334,-1.34829c1.12408,-0.67414 1.79852,-1.12358 1.79852,-1.12358c0,0 -0.5995,0.44943 -1.72358,1.19848c-0.52457,0.37453 -1.19902,0.89885 -1.94841,1.42319c-0.74938,0.52433 -1.5737,1.19848 -2.47297,1.94753c-1.87347,1.4232 -3.89681,3.14601 -6.14496,5.01863c-2.24815,1.87262 -4.57126,3.89505 -6.89435,5.91749c-2.32309,2.02244 -4.64619,4.04487 -6.81941,5.9924c-2.17322,1.94753 -4.19656,3.67034 -5.92014,5.24335c-3.44717,3.0711 -5.77027,5.09354 -5.77027,5.09354c0,0 0.52456,-0.52433 1.42383,-1.42319z" fill="#519b3d"/></g><g><g><path d="M300.48612,257.25133c0,0 -0.67444,-2.32205 0.3747,-2.09733c0.59951,0.14981 0.44963,0.59923 0.14988,0.97376c-0.37469,0.37453 -0.52457,0.44943 -0.52457,1.12358z" fill="#a1af93"/><path d="M310.52789,258.82434c-0.22481,1.4981 0.59951,2.69657 0,3.89505c-1.19901,2.47186 -1.9484,4.11978 -1.49877,5.9924c0.44963,1.79772 -3.44717,3.37072 -3.8968,2.02243c-0.37469,-1.19848 0.07493,-1.49809 0.89926,-2.47186c0,0 -0.9742,0.74905 -1.79852,0.74905c-1.04914,0.07491 -1.57371,-0.82395 -1.57371,-1.79772c0,-0.97377 0.82432,-1.79772 0.82432,-1.79772c0,0 -1.27396,0.29962 -1.9484,-0.74905c-0.74939,-1.27339 -0.22482,-1.27338 0.82432,-2.54676c0.82432,-0.97377 1.3489,-2.24715 1.04914,-3.59544c-0.29976,-1.64791 0.29975,-2.84639 -0.22482,-4.26958c-0.29976,-0.82396 -1.42383,2.02243 -2.09828,1.64791c-0.9742,-0.52434 -1.12408,-1.34829 -0.44963,-2.24715c1.12408,-1.573 1.79852,-2.09734 2.84767,-2.62167c1.57371,-0.82396 2.69779,-5.24335 4.49632,-2.92129c1.79852,2.32206 2.99754,8.01483 2.54791,10.71141z" fill="#7cbf2e"/><path d="M305.05737,269.08631c0.22481,-0.07491 0.52457,-0.22471 0.74939,-0.52433c0.29976,-0.29962 0.44963,-0.67415 0.52457,-1.12358c0.07494,-0.22472 0.07494,-0.44943 0.07494,-0.67415c0,-0.29962 0,-0.52433 0,-0.82395c0.07494,-1.19848 0.59951,-2.17225 1.12408,-2.77149c0.22481,-0.29962 0.52457,-0.52434 0.67445,-0.67415c0.14988,-0.14981 0.29976,-0.22471 0.29976,-0.22471c0,0 -0.07494,0.14981 -0.22482,0.29962c-0.14988,0.14981 -0.29976,0.44943 -0.52457,0.74905c-0.37469,0.67415 -0.82432,1.64791 -0.89927,2.62168c0,0.22472 0,0.44943 0,0.74905c0,0.29962 0,0.59924 -0.07494,0.82396c-0.07494,0.22472 -0.14988,0.44943 -0.29976,0.67415c-0.14988,0.22472 -0.29976,0.37453 -0.44963,0.52434c-0.29976,0.22472 -0.67444,0.29962 -0.89926,0.37452c-0.22481,0 -0.3747,0 -0.3747,0c0,0 0.14988,-0.07491 0.29976,0z" fill="#519b3d"/><path d="M304.23305,264.89164c0.44963,-0.37453 0.9742,-1.04867 1.19901,-1.79772c0.22481,-0.82396 0.44964,-1.6479 0.74939,-2.24714c0.14988,-0.29962 0.29976,-0.52434 0.44963,-0.67415c0.14988,-0.14981 0.22481,-0.22472 0.22481,-0.22472c0,0 -0.22482,0.37453 -0.37469,0.97377c-0.07494,0.29962 -0.14987,0.67415 -0.22481,1.04867c-0.07494,0.22472 -0.07493,0.37452 -0.14988,0.59923c-0.07494,0.14981 -0.14988,0.37453 -0.22482,0.59924c-0.14988,0.37453 -0.37469,0.82396 -0.67445,1.12358c-0.29976,0.29962 -0.59951,0.59924 -0.89926,0.74905c-0.59951,0.29962 -1.04914,0.37453 -1.04914,0.37453c0,0 0.44963,-0.14981 0.9742,-0.52434z" fill="#519b3d"/><path d="M301.76007,263.61825c0.52457,-0.59924 1.12408,-0.97377 1.3489,0c0.37469,1.64791 -2.84767,1.04867 -2.84767,1.04867c0.89927,-0.22472 1.04914,-0.44943 1.49877,-1.04867z" fill="#a1af93"/><path d="M303.18391,267.81293c0.37469,-0.67415 0.89926,-1.12358 1.27396,-0.22472c0.59951,1.4981 -2.62285,1.4981 -2.62285,1.4981c0.82432,-0.37453 0.89926,-0.67414 1.34889,-1.27338z" fill="#a1af93"/><path d="M304.98243,270.88403c0.14988,-0.67415 0.52457,-1.34829 1.19902,-0.59924c1.12408,1.19848 -1.9484,2.24715 -1.9484,2.24715c0.67444,-0.59924 0.59951,-0.89886 0.74939,-1.64791z" fill="#a1af93"/></g><g><path d="M298.01315,211.48441c2.77272,8.23954 -1.49877,22.17186 -12.58968,30.86084c-3.74693,2.92129 -3.2973,4.34449 -3.2973,4.34449c0,0 4.19656,-0.22472 11.39067,1.12357c5.54546,1.04867 11.01597,-1.19848 13.48895,-0.37453c2.54791,0.82396 4.42137,7.41558 -12.28993,8.83878c-29.22604,2.54677 -33.72235,-6.29201 -27.50245,-14.60646c6.81941,-9.13841 2.39803,-15.95476 3.67199,-26.06692c1.3489,-10.11217 22.48158,-18.127 27.12777,-4.11978z" fill="#7cbf2e"/><path d="M268.33747,240.0232c0.14988,-0.14981 0.29976,-0.44943 0.44963,-0.74905c0.14988,-0.29962 0.29976,-0.67415 0.52457,-1.04867c0.14988,-0.37453 0.37469,-0.82395 0.52457,-1.27338c0.14988,-0.44943 0.29976,-0.89885 0.44963,-1.42319c0.14988,-0.52434 0.22482,-1.04867 0.3747,-1.573c0.07494,-0.52434 0.14987,-1.04867 0.22481,-1.64791c0,-0.52434 0.14988,-1.12357 0.14988,-1.64791c0,-0.59924 0.07494,-1.12357 0.07494,-1.64791c0,-0.59924 0,-1.04867 0,-1.573c0,-0.44943 -0.07494,-0.89886 -0.07494,-1.34829c-0.07494,-0.82396 -0.14987,-1.4981 -0.22481,-2.02244c-0.07494,-0.44943 -0.07494,-0.74905 -0.07494,-0.74905c0,0 0.07494,0.22472 0.14988,0.74905c0,0.22472 0.07493,0.52433 0.14988,0.89886c0.07494,0.29962 0.07494,0.67415 0.14988,1.12358c0,0.37453 0.07493,0.82395 0.14988,1.34829c0,0.52434 0.07494,1.04867 0.07494,1.573c0.07494,0.52434 0,1.04866 0,1.64791c0,0.59924 -0.07494,1.12357 -0.14988,1.72281c-0.07494,0.59924 -0.22481,1.19848 -0.29975,1.72281c-0.14988,0.59924 -0.29976,1.12357 -0.44964,1.64791c-0.14988,0.52434 -0.29976,1.04866 -0.52457,1.4981c-0.22481,0.44943 -0.37469,0.89886 -0.5995,1.27338c-0.37469,0.74905 -0.82432,1.34829 -1.12408,1.72281c-0.29976,0.37453 -0.52457,0.59924 -0.52457,0.59924c0,0 0.22482,-0.22472 0.59951,-0.82396z" fill="#519b3d"/><path d="M304.60774,247.28898c-0.37469,0.14981 -0.89927,0.22472 -1.42383,0.29962c-0.29976,0.07491 -0.59951,0.07491 -0.89926,0.14981c-0.29976,0 -0.59951,0.07491 -0.9742,0.07491c-0.67444,0.07491 -1.42383,0.07491 -2.24816,0.14981c-0.74939,0 -1.57371,0.07491 -2.47297,0c-1.72359,-0.07491 -3.59705,-0.22472 -5.39558,-0.37453c-1.87347,-0.14981 -3.67199,-0.37453 -5.39558,-0.52434c-1.64865,-0.14981 -3.29729,-0.29962 -4.64619,-0.37452c-0.67444,0 -1.3489,-0.07491 -1.87347,-0.07491c-0.52457,-0.07491 -1.04914,-0.07491 -1.42383,-0.07491c-0.82432,-0.07491 -1.27396,-0.07491 -1.27396,-0.07491c0,0 0.44963,-0.07491 1.27396,-0.07491c0.74939,0 1.9484,0 3.2973,0c1.42383,0 2.99754,0.07491 4.72113,0.22472c1.72359,0.14981 3.59705,0.37452 5.39558,0.52433c1.87347,0.22472 3.67199,0.37453 5.39558,0.44943c0.82432,0.07491 1.72359,0.07491 2.47297,0.07491c0.82432,0 1.57371,0 2.24816,-0.07491c0.67444,0 1.3489,-0.07491 1.87347,-0.14981c0.52457,0 1.04914,-0.07491 1.42383,-0.14981c0.82432,-0.14981 1.27396,-0.22472 1.27396,-0.22472c0,0 -0.44963,0.14981 -1.3489,0.22472z" fill="#519b3d"/><path d="M288.421,256.65209c-1.49877,0.07491 -3.22235,0.07491 -5.09582,0.07491c-1.87347,0 -3.8968,0 -5.84521,-0.22472c-1.9484,-0.22472 -3.89681,-0.59923 -5.69533,-1.19847c-1.79852,-0.59924 -3.37224,-1.34829 -4.57125,-2.32206c-0.59951,-0.52434 -1.04914,-0.97376 -1.42383,-1.4981c-0.37469,-0.44943 -0.59951,-0.97377 -0.74939,-1.34829c-0.14988,-0.37453 -0.22481,-0.74905 -0.22481,-0.97376c0,-0.22472 0,-0.37452 0,-0.37452c0,0 0,0.52433 0.37469,1.27338c0.37469,0.74905 1.12408,1.79772 2.3231,2.62168c1.19901,0.82396 2.77273,1.64791 4.49631,2.17225c0.82432,0.29962 1.72359,0.52433 2.69779,0.74904c0.9742,0.22472 1.9484,0.37452 2.9226,0.52433c0.9742,0.22472 1.94841,0.22472 2.92261,0.29962c0.9742,0 1.9484,0.07491 2.84767,0.07491c1.87347,0.07491 3.59706,0.07491 5.09582,0.07491c2.99755,-0.07491 4.94594,-0.07491 4.94594,-0.07491c0,0 -1.94841,0.14981 -5.02089,0.14981z" fill="#519b3d"/><path d="M297.26376,224.44297c0.22481,-0.74905 0.37469,-1.573 0.59951,-2.47186c0.22481,-0.89886 0.37469,-1.87262 0.52457,-2.84639c0.07494,-0.44943 0.14988,-0.97377 0.14988,-1.4232c0.07494,-0.52434 0.07493,-0.97376 0.07493,-1.42319c0,-0.52434 0,-0.89885 0,-1.34829c0.07494,-0.44943 -0.07493,-0.82395 -0.07493,-1.19848c-0.07494,-0.37453 -0.14987,-0.67415 -0.22481,-0.97377c0,-0.07491 -0.07494,-0.22471 -0.07494,-0.37452c-0.07494,-0.07491 -0.07494,-0.22472 -0.14988,-0.29962c-0.14988,-0.37453 -0.22481,-0.59924 -0.22481,-0.59924c0,0 0.07494,0.22472 0.29976,0.59924c0,0.07491 0.07494,0.14981 0.14988,0.29962c0.07494,0.07491 0.07493,0.22471 0.14988,0.37452c0.07494,0.29962 0.22481,0.59924 0.29976,0.97377c0.07494,0.37453 0.22481,0.74905 0.22481,1.19848c0,0.44943 0.07494,0.89885 0.07494,1.34829c0,0.44943 0,0.89886 -0.07494,1.42319c0,0.52434 -0.07493,0.97377 -0.14988,1.4981c-0.07494,0.97376 -0.29976,1.94753 -0.52457,2.84639c-0.14988,0.89886 -0.44964,1.79771 -0.67445,2.47186c-0.44963,1.42319 -0.89926,2.32206 -0.89926,2.32206c0,0 0.29976,-0.97377 0.52457,-2.39696z" fill="#519b3d"/></g></g></g></g></svg>